<svg width="120px" height="120px" xmlns="http://www.w3.org/2000/svg" xmlns:bx="https://boxy-svg.com"> <defs> <mask id="circle-mask"> <rect width="120" height="120" fill="white"/> <circle cx="120" cy="60" r="16.8"/> </mask> <bx:grid x="0" y="0" width="83.36" height="96.753"/> </defs> <rect width="120" height="120" fill="#2a6699" mask="url(#circle-mask)" style=""/> <path d="M 391.07 375 L 386.842 355.4 L 389.026 355.4 L 392.358 371.584 L 397.202 355.4 L 399.302 355.4 L 404.146 371.528 L 407.506 355.4 L 409.606 355.4 L 405.378 375 L 403.194 375 L 398.238 358.396 L 393.254 375 Z M 412.71 375 L 412.71 355.4 L 426.738 355.4 L 426.738 357.304 L 414.866 357.304 L 414.866 364.164 L 422.622 364.164 L 422.622 366.04 L 414.866 366.04 L 414.866 373.096 L 426.85 373.096 L 426.85 375 Z M 429.959 375 L 429.959 355.4 L 437.911 355.4 Q 439.815 355.4 441.201 356.016 Q 442.587 356.632 443.343 357.766 Q 444.099 358.9 444.099 360.44 Q 444.099 361.952 443.301 363.072 Q 442.503 364.192 441.103 364.78 Q 442.867 365.312 443.889 366.544 Q 444.911 367.776 444.911 369.484 Q 444.911 371.164 444.085 372.41 Q 443.259 373.656 441.761 374.328 Q 440.263 375 438.247 375 Z M 432.115 363.94 L 437.799 363.94 Q 439.703 363.94 440.837 363.044 Q 441.971 362.148 441.971 360.608 Q 441.971 359.068 440.837 358.172 Q 439.703 357.276 437.799 357.276 L 432.115 357.276 Z M 432.115 373.124 L 438.079 373.124 Q 440.207 373.124 441.467 372.116 Q 442.727 371.108 442.727 369.428 Q 442.727 367.748 441.467 366.74 Q 440.207 365.732 438.079 365.732 L 432.115 365.732 Z" transform="matrix(1.264592, 0, 0, 1.240303, -483.899353, -355.845154)" style="fill: rgb(255, 255, 255);"/> <path d="M 456.338 375.28 Q 453.678 375.28 451.732 374.216 Q 449.786 373.152 448.722 371.178 Q 447.658 369.204 447.658 366.544 L 447.658 355.4 L 451.718 355.4 L 451.718 366.544 Q 451.718 368.056 452.292 369.19 Q 452.866 370.324 453.916 370.926 Q 454.966 371.528 456.366 371.528 Q 457.766 371.528 458.802 370.926 Q 459.838 370.324 460.412 369.19 Q 460.986 368.056 460.986 366.544 L 460.986 355.4 L 465.018 355.4 L 465.018 366.544 Q 465.018 369.176 463.954 371.15 Q 462.89 373.124 460.944 374.202 Q 458.998 375.28 456.338 375.28 Z M 468.263 375 L 468.263 355.4 L 472.323 355.4 L 472.323 375 Z" transform="matrix(1.264592, 0, 0, 1.240303, -483.899353, -355.845154)" style="fill: rgb(255, 255, 255);"/></svg>