<?xml version="1.0" standalone="no"?>
<!DOCTYPE svg PUBLIC "-//W3C//DTD SVG 1.1//EN" "http://www.w3.org/Graphics/SVG/1.1/DTD/svg11.dtd" >
<svg>
<metadata>
Created by FontForge 20120731 at Sat Apr 19 19:44:55 2014
 By World Wide Web Server
(c) 1999-2012 Typodermic Fonts Inc. See attached license agreement. If agreement is missing visit typodermicfonts.com for more info.
</metadata>
<defs>
<font id="Monofonto-Regular" horiz-adv-x="500" >
  <font-face 
    font-family="Monofonto"
    font-weight="400"
    font-stretch="normal"
    units-per-em="1000"
    panose-1="2 1 6 9 2 0 0 0 0 0"
    ascent="760"
    descent="-240"
    x-height="498"
    cap-height="725"
    bbox="-25 -240 530 960"
    underline-thickness="20"
    underline-position="-123"
    unicode-range="U+0017-25CA"
  />
<missing-glyph 
d="M134 -149q-98 0 -98 85v806q0 86 98 86h236q99 0 99 -86v-806q0 -85 -99 -85h-236zM430 546q0 40 -10.5 74.5t-32.5 60t-56 40t-80 14.5q-41 0 -73.5 -14t-55.5 -39.5t-36 -60t-14 -75.5h112q6 76 64 76q33 0 46.5 -21.5t13.5 -50.5q0 -18 -3 -32.5t-11 -27t-21 -26
t-32 -30.5q-38 -33 -53 -68.5t-15 -68.5v-36h115v14q0 24 8.5 40t23 31.5t33.5 33.5t41 45q20 24 28 55t8 66zM298 73q0 32 -17 57.5t-49 25.5t-48.5 -25.5t-16.5 -57.5q0 -33 16.5 -58t48.5 -25q29 0 47.5 23t18.5 60z" />
    <glyph glyph-name=".notdef" 
d="M134 -149q-98 0 -98 85v806q0 86 98 86h236q99 0 99 -86v-806q0 -85 -99 -85h-236zM430 546q0 40 -10.5 74.5t-32.5 60t-56 40t-80 14.5q-41 0 -73.5 -14t-55.5 -39.5t-36 -60t-14 -75.5h112q6 76 64 76q33 0 46.5 -21.5t13.5 -50.5q0 -18 -3 -32.5t-11 -27t-21 -26
t-32 -30.5q-38 -33 -53 -68.5t-15 -68.5v-36h115v14q0 24 8.5 40t23 31.5t33.5 33.5t41 45q20 24 28 55t8 66zM298 73q0 32 -17 57.5t-49 25.5t-48.5 -25.5t-16.5 -57.5q0 -33 16.5 -58t48.5 -25q29 0 47.5 23t18.5 60z" />
    <glyph glyph-name="uni0017" 
 />
    <glyph glyph-name="space" unicode=" " 
 />
    <glyph glyph-name="exclam" unicode="!" 
d="M308 252h-115v473h115v-473zM315 72q0 -36 -17.5 -59t-46.5 -23q-30 0 -48 22t-18 60q0 16 4.5 31t13 27t20.5 19t28 7q28 0 46 -24.5t18 -59.5z" />
    <glyph glyph-name="quotedbl" unicode="&#x22;" 
d="M348 491h-63v234h63v-234zM214 491h-61v234h61v-234z" />
    <glyph glyph-name="numbersign" unicode="#" 
d="M482 524l-19 -87h-72l-31 -149h74l-18 -87h-75l-44 -201h-77l44 201h-94l-43 -201h-77l42 201h-74l19 87h73l34 149h-78l19 87h77l42 201h77l-41 -201h92l44 201h76l-43 -201h73zM314 437h-95l-32 -151h96z" />
    <glyph glyph-name="dollar" unicode="$" 
d="M465 211q0 -94 -45 -152t-130 -67v-93h-80v95q-76 11 -115 59t-45 136h119q5 -39 27.5 -57.5t70.5 -18.5q34 0 55 21t21 56q0 30 -16 52t-59 43q-37 18 -75 39t-74 51q-33 29 -48.5 64.5t-15.5 91.5q0 82 41 134.5t114 65.5v95h80v-93q82 -8 121 -57t41 -132h-117
q2 38 -21 59t-60 21q-42 0 -62.5 -18.5t-20.5 -53.5q0 -28 12 -47t44 -38q22 -14 46 -24.5t47 -22t45.5 -25.5t41.5 -33q32 -31 45 -67t13 -84z" />
    <glyph glyph-name="ampersand" unicode="&#x26;" 
d="M496 0h-123l-41 77q-30 -45 -67 -66t-90 -21q-34 0 -63 13t-50 38.5t-32.5 62t-11.5 83.5q0 147 122 231q-26 42 -42 81t-16 84q0 33 8 60.5t24.5 48t42.5 32t63 11.5q75 0 107.5 -40.5t32.5 -110.5q0 -51 -25 -96t-73 -87l88 -144l83 107l61 -92l-92 -112zM274 591
q0 27 -12 45t-38 18t-37 -18t-11 -45q0 -43 40 -106q58 52 58 106zM186 330q-34 -27 -49.5 -59t-15.5 -74q0 -39 17 -63t49 -24q26 0 46 15.5t43 45.5z" />
    <glyph glyph-name="quotesingle" unicode="'" 
d="M282 491h-63v234h63v-234z" />
    <glyph glyph-name="parenleft" unicode="(" 
d="M425 768q-27 -53 -47.5 -111t-34 -118t-20.5 -119t-7 -113t7 -112t20.5 -117.5t34 -117.5t47.5 -110l-77 -50q-131 254 -131 510q0 255 131 508z" />
    <glyph glyph-name="parenright" unicode=")" 
d="M153 818q130 -251 130 -508t-130 -510l-77 50q27 52 47 110t33.5 117.5t20.5 117.5t7 112t-7 113t-20.5 119t-33.5 118t-47 111z" />
    <glyph glyph-name="asterisk" unicode="*" 
d="M36 606l186 -88l-28 207h110l-26 -203l188 90l34 -105l-201 -38l144 -151l-90 -65l-98 180l-99 -184l-90 65l141 150l-205 37z" />
    <glyph glyph-name="plus" unicode="+" 
d="M210 136v184h-183v80h183v182h80v-182h183v-80h-183v-184h-80z" />
    <glyph glyph-name="comma" unicode="," 
d="M313 126l-57 -262l-85 20l38 269z" />
    <glyph glyph-name="hyphen" unicode="-" 
d="M404 314h-309v107h309v-107z" />
    <glyph glyph-name="period" unicode="." 
d="M315 68q0 -32 -16.5 -55t-47.5 -23q-32 0 -49 23t-17 55t17 56t49 24q29 0 46.5 -24.5t17.5 -55.5z" />
    <glyph glyph-name="slash" unicode="/" 
d="M98 -169h-90l394 958h90z" />
    <glyph glyph-name="zero" unicode="0" 
d="M443 176q0 -40 -10 -74t-32.5 -59t-59 -39t-90.5 -14t-91 14t-59.5 38.5t-32.5 58.5t-10 74v375q0 40 10 74t32.5 58.5t59.5 38.5t91 14t90.5 -14t59 -39t32.5 -59t10 -74v-373zM179 179q0 -42 18 -60.5t54 -18.5q35 0 52.5 19t17.5 64v359q0 45 -17.5 64t-52.5 19
q-36 0 -54 -18.5t-18 -60.5v-367z" />
    <glyph glyph-name="one" unicode="1" 
d="M332 0h-117v542l-116 -68v131l233 130v-735z" />
    <glyph glyph-name="two" unicode="2" 
d="M446 528q0 -80 -44 -152l-145 -241h184v-135h-381l232 425q17 32 26.5 56t9.5 41q0 51 -21.5 71.5t-55.5 20.5q-76 0 -79 -105h-117q10 226 196 226q44 0 80 -15.5t61.5 -43t39.5 -65.5t14 -83z" />
    <glyph glyph-name="three" unicode="3" 
d="M461 212q0 -50 -15 -91t-42.5 -70t-66 -45t-85.5 -16q-50 0 -89.5 16t-67 45.5t-42 71t-14.5 92.5h114q0 -55 24.5 -82.5t69.5 -27.5q43 0 70 31t27 82q0 26 -8 45.5t-20.5 33t-29 21.5t-32.5 10v93q16 1 31 8t27 20t19.5 32t7.5 44q0 51 -25 76.5t-62 25.5
q-35 0 -58 -19.5t-30 -59.5h-105q3 41 16.5 75.5t38 59t61 38.5t84.5 14q40 0 73.5 -15t58.5 -42t39 -64t14 -81q0 -62 -21.5 -98t-59.5 -56q48 -21 73 -59t25 -108z" />
    <glyph glyph-name="four" unicode="4" 
d="M471 158h-77v-158h-114v158h-247v126l203 441h158v-452h77v-115zM287 273v364l-169 -364h169z" />
    <glyph glyph-name="five" unicode="5" 
d="M458 237q0 -52 -16 -97t-45.5 -78.5t-70.5 -52.5t-92 -19q-69 0 -117 37.5t-72 113.5l103 54q24 -74 94 -74q41 0 68.5 29t27.5 82q0 57 -25 85t-68 28q-29 0 -48 -13.5t-28 -32.5h-102v426h360v-127h-258v-167q25 14 52.5 21t47.5 7q45 0 80 -16.5t59.5 -46t37 -70
t12.5 -89.5z" />
    <glyph glyph-name="six" unicode="6" 
d="M458 222q0 -56 -16.5 -99t-45 -72.5t-66.5 -45t-82 -15.5t-81.5 17.5t-65.5 49t-43.5 74.5t-15.5 93q0 59 18 112.5t55 121.5l148 267h134l-163 -291q12 2 24 3.5t23 1.5q82 0 129.5 -57.5t47.5 -159.5zM339 224q0 49 -26 78.5t-64 29.5q-39 0 -63 -32t-24 -78
q0 -45 24 -77t63 -32q38 0 64 31.5t26 79.5z" />
    <glyph glyph-name="seven" unicode="7" 
d="M474 725l-249 -725h-150l228 598h-265v127h436z" />
    <glyph glyph-name="eight" unicode="8" 
d="M463 212q0 -103 -51.5 -162.5t-160.5 -59.5q-55 0 -95 16t-66.5 45t-39.5 70t-13 92q0 31 9 58t24 48.5t33.5 37t37.5 24.5q-42 28 -59.5 63t-17.5 90q0 43 11.5 79.5t35 63.5t58.5 42.5t82 15.5q46 0 81 -16t58.5 -44t35 -64.5t11.5 -76.5q0 -107 -76 -154
q45 -20 73.5 -62t28.5 -106zM335 526q0 19 -5.5 37.5t-16 33t-26 23t-36.5 8.5t-37 -8.5t-26.5 -23t-15.5 -33t-5 -37.5q0 -20 5.5 -38.5t16 -32.5t26.5 -22.5t37 -8.5q42 0 62.5 28t20.5 74zM347 216q0 49 -24.5 81t-71.5 32q-48 0 -72.5 -32t-24.5 -81q0 -48 25.5 -79.5
t72.5 -31.5q23 0 40.5 9t29.5 24.5t18.5 35.5t6.5 42z" />
    <glyph glyph-name="nine" unicode="9" 
d="M42 502q0 56 16.5 99.5t45 73t67 45t82.5 15.5q43 0 80.5 -17.5t65.5 -49t43.5 -74.5t15.5 -94q0 -29 -4.5 -56.5t-13.5 -55.5t-22.5 -57.5t-32.5 -63.5l-147 -267h-135l164 291q-12 -2 -24 -3.5t-24 -1.5q-82 0 -129.5 57.5t-47.5 158.5zM162 500q0 -48 25.5 -77.5
t64.5 -29.5q19 0 35 8.5t27.5 23.5t18 34.5t6.5 42.5t-6.5 43t-18 35t-27.5 23.5t-35 8.5q-39 0 -64.5 -31.5t-25.5 -80.5z" />
    <glyph glyph-name="colon" unicode=":" 
d="M315 428q0 -34 -17.5 -58t-46.5 -24q-30 0 -48 23t-18 59q0 32 17 57t49 25q31 0 47.5 -25t16.5 -57zM315 72q0 -35 -16.5 -58.5t-47.5 -23.5q-32 0 -49 24t-17 58q0 32 17 57t49 25q29 0 46.5 -25t17.5 -57z" />
    <glyph glyph-name="semicolon" unicode=";" 
d="M324 428q0 -34 -17.5 -58t-48.5 -24q-32 0 -49.5 24t-17.5 58q0 32 17.5 57t49.5 25q29 0 47.5 -25t18.5 -57zM300 131l-57 -267l-85 21l37 273z" />
    <glyph glyph-name="less" unicode="&#x3c;" 
d="M472 93l-445 221v92l445 222v-89l-363 -179l363 -178v-89z" />
    <glyph glyph-name="equal" unicode="=" 
d="M27 209v80h446v-80h-446zM27 432v80h446v-80h-446z" />
    <glyph glyph-name="greater" unicode="&#x3e;" 
d="M27 182l363 178l-363 179v89l445 -222v-92l-445 -221v89z" />
    <glyph glyph-name="question" unicode="?" 
d="M430 546q0 -35 -8 -66t-28 -55q-22 -27 -41 -45t-33.5 -33.5t-23 -31.5t-8.5 -40v-14h-115v36q0 33 15 68.5t53 68.5q19 17 32 30.5t21 26t11 27t3 32.5q0 29 -13.5 50.5t-46.5 21.5q-58 0 -64 -76h-112q1 41 14 75.5t36 60t55.5 39.5t73.5 14q46 0 80 -14.5t56 -40
t32.5 -60t10.5 -74.5zM298 73q0 -37 -18.5 -60t-47.5 -23q-32 0 -48.5 25t-16.5 58q0 32 16.5 57.5t48.5 25.5t49 -25.5t17 -57.5z" />
    <glyph glyph-name="at" unicode="@" 
d="M351 354v-163q0 -28 7 -42.5t25 -14.5q9 0 18.5 6t17.5 25t13.5 54t5.5 94q0 61 -12 103.5t-33.5 68.5t-52 38t-67.5 12q-41 0 -75.5 -17.5t-59 -53.5t-38 -91.5t-13.5 -131.5q0 -55 12 -103.5t32.5 -87.5t47.5 -68t57 -45l-36 -71q-86 51 -135.5 141t-49.5 227
q0 99 17 170t50.5 116t82.5 66.5t112 21.5q106 0 160 -68t54 -210q0 -47 -3.5 -90t-14.5 -75.5t-33 -51.5t-58 -19q-20 0 -38 9t-30 25q-12 -14 -28.5 -20.5t-32.5 -6.5q-39 0 -64 32t-25 93q0 62 22.5 95.5t66.5 33.5q33 0 54 -21l5 20h39zM307 269q-18 25 -46 25
q-22 0 -34.5 -16.5t-12.5 -51.5q0 -64 44 -64q31 0 49 32v75z" />
    <glyph glyph-name="A" unicode="A" 
d="M468 0h-138l-25 117h-118l-25 -117h-130l153 725h129zM285 230l-38 230l-41 -230h79z" />
    <glyph glyph-name="B" unicode="B" 
d="M448 206q0 -106 -50.5 -156t-159.5 -50h-185v725h201q90 0 135.5 -52t45.5 -136q0 -66 -24 -104t-73 -61q51 -17 80.5 -58.5t29.5 -107.5zM311 517q0 33 -6.5 53.5t-18.5 32t-29.5 15.5t-39.5 4h-47v-211h45q47 0 71.5 23.5t24.5 82.5zM324 221q0 49 -27 80t-69 31h-58
v-220h62q23 0 40 8.5t28.5 23.5t17.5 35t6 42z" />
    <glyph glyph-name="C" unicode="C" 
d="M172 206q0 -50 21 -74t58 -24q28 0 49.5 17t24.5 57h125q-19 -192 -199 -192q-99 0 -150.5 52.5t-51.5 159.5v321q0 107 51.5 159.5t150.5 52.5q180 0 199 -192h-125q-3 39 -24.5 56.5t-49.5 17.5q-37 0 -58 -24t-21 -74v-313z" />
    <glyph glyph-name="D" unicode="D" 
d="M452 222q0 -218 -198 -218h-205v721h205q198 0 198 -222v-281zM332 495q0 52 -20.5 86t-57.5 34h-85v-496h85q78 0 78 110v266z" />
    <glyph glyph-name="E" unicode="E" 
d="M435 0h-368v725h368v-115h-239v-185h189v-117h-189v-186h239v-122z" />
    <glyph glyph-name="F" unicode="F" 
d="M435 610h-239v-185h198v-117h-198v-308h-129v725h368v-115z" />
    <glyph glyph-name="G" unicode="G" 
d="M442 0h-95v64q-8 -28 -38.5 -51t-94.5 -23q-33 0 -63 13.5t-52.5 38.5t-35.5 60t-13 78v344q0 107 53 159t149 52q85 0 138.5 -46.5t59.5 -145.5h-125q0 38 -21.5 56t-51.5 18q-36 0 -57.5 -26.5t-21.5 -71.5v-321q0 -48 21.5 -69t57.5 -21q35 0 55 21t20 69v108h-59v104
h174v-410z" />
    <glyph glyph-name="H" unicode="H" 
d="M449 0h-130v306h-140v-306h-128v725h128v-295h140v295h130v-725z" />
    <glyph glyph-name="I" unicode="I" 
d="M420 0h-339v116h109v494h-109v115h339v-115h-107v-494h107v-116z" />
    <glyph glyph-name="J" unicode="J" 
d="M437 251q0 -118 -53 -184.5t-161 -66.5h-154v122h137q19 0 37 6t32 20t22.5 38t8.5 59v365h-68v115h199v-474z" />
    <glyph glyph-name="K" unicode="K" 
d="M471 0h-137l-144 340v-340h-130v725h130v-325l142 325h127l-159 -328z" />
    <glyph glyph-name="L" unicode="L" 
d="M447 0h-380v725h128v-603h252v-122z" />
    <glyph glyph-name="M" unicode="M" 
d="M462 0h-106v445l-105 -318l-105 318v-445h-108v725h131l82 -279l89 279h122v-725z" />
    <glyph glyph-name="N" unicode="N" 
d="M455 0h-127l-165 424v-424h-118v725h148l147 -424v424h115v-725z" />
    <glyph glyph-name="O" unicode="O" 
d="M459 221q0 -110 -54 -170.5t-154 -60.5q-104 0 -157 63t-53 168v282q0 106 53 169t157 63q100 0 154 -60.5t54 -171.5v-282zM164 202q0 -53 25 -77.5t62 -24.5q36 0 61 25.5t25 76.5v321q0 51 -25 76.5t-61 25.5q-37 0 -62 -25t-25 -77v-321z" />
    <glyph glyph-name="P" unicode="P" 
d="M469 488q0 -121 -52.5 -181t-162.5 -60h-75v-247h-128v725h205q52 0 91.5 -17t66.5 -48t41 -74.5t14 -97.5zM338 490q0 61 -23.5 90t-75.5 29h-60v-240h60q99 0 99 121z" />
    <glyph glyph-name="Q" unicode="Q" 
d="M459 235q0 -150 -95 -205l53 -146h-107l-44 119h-15q-104 0 -157 63t-53 169v268q0 106 53 169t157 63q100 0 154 -60.5t54 -171.5v-268zM164 215q0 -52 25 -77t62 -25q36 0 61 25.5t25 76.5v308q0 51 -25 76.5t-61 25.5q-37 0 -62 -25t-25 -77v-308z" />
    <glyph glyph-name="R" unicode="R" 
d="M477 0h-162l-138 287v-287h-130v725h201q100 0 157 -56.5t57 -159.5q0 -90 -39.5 -137.5t-104.5 -65.5zM330 490q0 69 -27 94t-81 25h-45v-240h60q44 0 68.5 34t24.5 87z" />
    <glyph glyph-name="S" unicode="S" 
d="M465 211q0 -101 -53 -161t-152 -60q-101 0 -151.5 49.5t-58.5 149.5h119q5 -39 27.5 -57.5t70.5 -18.5q34 0 55 21t21 56q0 30 -16 52t-59 43q-37 18 -75 39t-74 51q-33 29 -48.5 64.5t-15.5 91.5q0 95 54 149.5t148 54.5q100 0 146.5 -50t48.5 -141h-117q2 38 -21 59
t-60 21q-42 0 -62.5 -18.5t-20.5 -53.5q0 -28 12 -47t44 -38q22 -14 46 -24.5t47 -22t45.5 -25.5t41.5 -33q32 -31 45 -67t13 -84z" />
    <glyph glyph-name="T" unicode="T" 
d="M473 603h-158v-603h-130v603h-158v122h446v-122z" />
    <glyph glyph-name="U" unicode="U" 
d="M462 206q0 -112 -56.5 -164t-154.5 -52q-101 0 -157 53t-56 163v519h124v-512q0 -54 26 -82t63 -28q36 0 62.5 28t26.5 82v512h122v-519z" />
    <glyph glyph-name="V" unicode="V" 
d="M481 725l-166 -725h-128l-168 725h133l102 -473l104 473h123z" />
    <glyph glyph-name="W" unicode="W" 
d="M491 725l-93 -725h-87l-60 306l-62 -306h-90l-89 725h132l33 -398l76 276l75 -276l34 398h131z" />
    <glyph glyph-name="X" unicode="X" 
d="M471 0h-154l-70 232l-71 -232h-147l146 363l-146 362h152l74 -223l73 223h143l-147 -363z" />
    <glyph glyph-name="Y" unicode="Y" 
d="M489 725l-174 -436v-289h-130v289l-173 436h153l88 -265l87 265h149z" />
    <glyph glyph-name="Z" unicode="Z" 
d="M471 725l-252 -603h242v-122h-439l262 609h-244v116h431z" />
    <glyph glyph-name="bracketleft" unicode="[" 
d="M447 -199h-190v1017h190v-80h-93v-857h93v-80z" />
    <glyph glyph-name="backslash" unicode="\" 
d="M8 789h90l394 -958h-90z" />
    <glyph glyph-name="bracketright" unicode="]" 
d="M54 -119h93v857h-93v80h190v-1017h-190v80z" />
    <glyph glyph-name="asciicircum" unicode="^" 
d="M127 400h-88l165 325h92l165 -325h-89l-122 243z" />
    <glyph glyph-name="underscore" unicode="_" 
d="M500 -199h-500v78h500v-78z" />
    <glyph glyph-name="grave" unicode="`" 
d="M131 734h136l103 -177h-105z" />
    <glyph glyph-name="a" unicode="a" 
d="M338 191q-15 9 -38 16t-49 7q-44 0 -62.5 -19.5t-18.5 -48.5q0 -33 20.5 -47.5t55.5 -14.5q31 0 57 22.5t35 50.5v34zM453 0h-103v86q-17 -39 -50.5 -67.5t-88.5 -28.5q-44 0 -75 11.5t-50.5 32t-28.5 49t-9 63.5q0 81 40 119t120 38q54 0 84 -7.5t46 -21.5v54
q0 39 -22.5 60t-61.5 21q-61 0 -80 -55l-106 34q11 35 31 58.5t45 37.5t53.5 19.5t55.5 5.5q54 0 92 -12.5t62 -36t35 -56.5t11 -73v-331z" />
    <glyph glyph-name="b" unicode="b" 
d="M467 247q0 -69 -12.5 -118t-34 -79.5t-51.5 -45t-66 -14.5q-42 0 -80.5 28t-61.5 88v-106h-111v725h115v-332q23 65 60 90.5t77 25.5q46 0 77.5 -17.5t51 -51.5t28 -82.5t8.5 -110.5zM346 252q0 76 -24 116t-66 40q-20 0 -37 -12t-29 -33t-18.5 -50t-6.5 -62
q0 -35 6.5 -64t18.5 -50.5t29 -33.5t37 -12q40 0 65 42.5t25 118.5z" />
    <glyph glyph-name="c" unicode="c" 
d="M457 67q-30 -40 -71.5 -58.5t-98.5 -18.5t-103 19t-78.5 53t-50 82t-17.5 105t18.5 104.5t52.5 82t82 54t107 19.5q28 0 53 -6.5t44.5 -16t33 -20.5t19.5 -21l-66 -90q-14 17 -36 27.5t-58 10.5q-55 0 -92.5 -35t-37.5 -110q0 -70 36 -106.5t94 -36.5q26 0 55 13t46 39z
" />
    <glyph glyph-name="d" unicode="d" 
d="M33 247q0 62 9 110.5t28.5 82.5t51 51.5t76.5 17.5q40 0 77 -25.5t61 -90.5v332h115v-725h-111v106q-24 -60 -62.5 -88t-80.5 -28q-36 0 -66 14.5t-51.5 45t-34 79.5t-12.5 118zM155 252q0 -76 24.5 -118.5t65.5 -42.5q20 0 36.5 12t28.5 33.5t19 50.5t7 64q0 33 -7 62
t-19 50t-28.5 33t-36.5 12q-43 0 -66.5 -40t-23.5 -116z" />
    <glyph glyph-name="e" unicode="e" 
d="M153 224q5 -66 32.5 -97t75.5 -31q57 0 80 54l111 -27q-26 -67 -76 -100t-120 -33q-50 0 -91.5 18.5t-71 52.5t-46 81t-16.5 104q0 62 16.5 111t46 82.5t70 51.5t89.5 18q101 0 156.5 -74t59.5 -211h-316zM353 275q-2 61 -29.5 94t-69.5 33q-46 0 -72 -33t-31 -94h202z
" />
    <glyph glyph-name="f" unicode="f" 
d="M464 607h-136q-35 0 -48 -14.5t-13 -46.5v-48h119v-107h-119v-391h-116v391h-106v107h106v57q0 92 38.5 131t116.5 39h158v-118z" />
    <glyph glyph-name="g" unicode="g" 
d="M451 9q0 -101 -56 -159.5t-175 -58.5q-122 0 -187 77l49 80q61 -64 138 -64q54 0 87 29.5t33 100.5v98q-24 -65 -56.5 -93.5t-76.5 -28.5q-37 0 -68.5 18.5t-55 52t-36.5 81t-13 106.5q0 56 12 104t35 83t55 54.5t73 19.5q53 0 82.5 -26.5t50.5 -84.5v100h109v-489z
M338 248q0 34 -7 63t-19.5 50.5t-29.5 33.5t-36 12q-20 0 -37 -12t-29 -33.5t-18.5 -50.5t-6.5 -62t6.5 -61t18.5 -49t29 -32.5t37 -11.5t37 12t29 32.5t19 48.5t7 60z" />
    <glyph glyph-name="h" unicode="h" 
d="M454 0h-116v302q0 48 -20 73.5t-61 25.5q-42 0 -62.5 -25t-20.5 -73v-303h-116v725h116v-330q26 62 66.5 88t87.5 26q63 0 94.5 -41t31.5 -115v-353z" />
    <glyph glyph-name="i" unicode="i" 
d="M409 0h-318v116h108v266h-108v116h223v-382h95v-116zM321 655q0 -31 -16.5 -54.5t-47.5 -23.5q-32 0 -49 23.5t-17 54.5q0 33 17 56.5t49 23.5q29 0 46.5 -24t17.5 -56z" />
    <glyph glyph-name="j" unicode="j" 
d="M378 -8q-2 -191 -149 -191h-149v121h135q47 0 47 70v390h-143v116h259v-506zM385 655q0 -31 -16.5 -54.5t-48.5 -23.5q-31 0 -48 23.5t-17 54.5q0 33 17 56.5t48 23.5q30 0 47.5 -24t17.5 -56z" />
    <glyph glyph-name="k" unicode="k" 
d="M456 0h-145l-140 240v-240h-116v725h116v-437l138 210h126l-149 -219z" />
    <glyph glyph-name="l" unicode="l" 
d="M330 0h-116v610h-106v115h222v-725z" />
    <glyph glyph-name="m" unicode="m" 
d="M473 0h-116v362q0 40 -32 40q-35 0 -35 -40v-362h-80v362q0 40 -32 40q-34 0 -34 -40v-362h-117v498h110v-79q3 17 9.5 33t16.5 29t22.5 20.5t28.5 7.5q33 0 49.5 -22.5t24.5 -62.5q11 38 34.5 61.5t65.5 23.5q40 0 62.5 -31t22.5 -83v-395z" />
    <glyph glyph-name="n" unicode="n" 
d="M454 0h-116v302q0 48 -20 73.5t-61 25.5q-42 0 -62.5 -25t-20.5 -73v-303h-116v498h116v-103q26 62 66.5 88t87.5 26q63 0 94.5 -41t31.5 -115v-353z" />
    <glyph glyph-name="o" unicode="o" 
d="M464 249q0 -55 -15.5 -102.5t-43.5 -82t-67.5 -54.5t-86.5 -20q-48 0 -88 19.5t-68 54t-43.5 82t-15.5 103.5q0 55 15 102.5t43 82.5t68 55t89 20q48 0 87.5 -20t67 -55.5t43 -83t15.5 -101.5zM343 249q0 63 -25.5 103.5t-66.5 40.5q-21 0 -38.5 -11t-29.5 -30.5
t-18.5 -46t-6.5 -57.5q0 -30 7 -56.5t19.5 -45.5t29.5 -30t37 -11q42 0 67 40t25 104z" />
    <glyph glyph-name="p" unicode="p" 
d="M455 252q0 -62 -9 -111t-28.5 -82.5t-51 -51t-76.5 -17.5q-40 0 -77 25t-60 90v-304h-116v697h112v-106q23 60 61.5 88.5t80.5 28.5q36 0 66 -14.5t51.5 -45t34 -79.5t12.5 -118zM334 247q0 76 -25 118t-65 42q-20 0 -37 -12t-29 -33t-18.5 -50.5t-6.5 -63.5
q0 -33 6.5 -62t18.5 -50.5t29 -33.5t37 -12q42 0 66 40.5t24 116.5z" />
    <glyph glyph-name="q" unicode="q" 
d="M33 252q0 69 12.5 118t34 79.5t51.5 45t66 14.5q42 0 80.5 -28.5t62.5 -88.5v106h111v-697h-115v304q-24 -65 -61 -90t-77 -25q-45 0 -76.5 17.5t-51 51t-28.5 82.5t-9 111zM155 247q0 -76 23.5 -116.5t66.5 -40.5q20 0 36.5 12t28.5 33.5t19 50.5t7 62q0 34 -7 63.5
t-19 50.5t-28.5 33t-36.5 12q-41 0 -65.5 -42t-24.5 -118z" />
    <glyph glyph-name="r" unicode="r" 
d="M318 509q57 0 88 -32.5t35 -83.5l-115 -58q-13 58 -68 58q-38 0 -59.5 -26t-21.5 -66v-301h-117v498h110v-109q28 66 64 93t84 27z" />
    <glyph glyph-name="s" unicode="s" 
d="M438 151q0 -37 -14 -66.5t-38.5 -50.5t-59 -32.5t-75.5 -11.5q-85 0 -133.5 34.5t-50.5 106.5h122q0 -29 17 -43t48 -14q37 0 50.5 16t13.5 33q0 23 -15 38.5t-55 32.5q-38 15 -70 28.5t-59 35.5q-23 18 -36.5 43.5t-13.5 57.5q0 39 14 67.5t38 47t57 27t71 8.5
q70 0 118.5 -33.5t56.5 -97.5h-118q-2 26 -16.5 39.5t-47.5 13.5q-32 0 -45.5 -14t-13.5 -32q0 -25 15.5 -39t57.5 -32q51 -21 81.5 -34t50.5 -27q23 -15 36.5 -40t13.5 -62z" />
    <glyph glyph-name="t" unicode="t" 
d="M432 0h-145q-69 0 -98.5 33t-29.5 101v257h-108v107h108v137h115v-137h115v-107h-115v-228q0 -22 8.5 -34t31.5 -12h118v-117z" />
    <glyph glyph-name="u" unicode="u" 
d="M453 184q0 -92 -55 -143t-147 -51q-93 0 -148 51t-55 143v314h116v-305q0 -25 7.5 -42t19.5 -28t27.5 -16t32.5 -5q16 0 31.5 5t27.5 16t19.5 28t7.5 42v305h116v-314z" />
    <glyph glyph-name="v" unicode="v" 
d="M476 498l-158 -498h-135l-158 498h131l100 -334l98 334h122z" />
    <glyph glyph-name="w" unicode="w" 
d="M487 498l-99 -498h-91l-47 193l-48 -193h-90l-98 498h127l50 -273l63 273l62 -273l50 273h121z" />
    <glyph glyph-name="x" unicode="x" 
d="M460 0h-128l-83 173l-79 -173h-130l136 252l-128 246h126l77 -161l78 161h126l-133 -241z" />
    <glyph glyph-name="y" unicode="y" 
d="M475 498l-209 -697h-129l54 174l-166 523h131l100 -347l99 347h120z" />
    <glyph glyph-name="z" unicode="z" 
d="M451 498l-215 -390h208v-108h-404l221 390h-201v108h391z" />
    <glyph glyph-name="braceleft" unicode="{" 
d="M184 359q49 0 72.5 28t23.5 101q0 21 -1.5 47t-3.5 53t-3.5 53t-1.5 48q0 63 34.5 96t112.5 33h13.5t15.5 -1v-87h-10q-37 0 -55.5 -21.5t-18.5 -60.5q0 -51 3.5 -102t3.5 -102q0 -54 -27.5 -89t-71.5 -46q44 -11 71.5 -45.5t27.5 -88.5q0 -51 -3.5 -102t-3.5 -102
q0 -39 18.5 -60.5t55.5 -21.5h10v-87q-8 -1 -15.5 -1h-13.5q-78 0 -112.5 32.5t-34.5 95.5q0 22 1.5 48.5t3.5 53.5t3.5 52.5t1.5 46.5q0 73 -23.5 101.5t-72.5 28.5h-4v99h4z" />
    <glyph glyph-name="bar" unicode="|" 
d="M290 -169h-80v958h80v-958z" />
    <glyph glyph-name="braceright" unicode="}" 
d="M320 359v-99h-4q-48 0 -72 -28.5t-24 -101.5q0 -21 1.5 -46.5t3.5 -52.5t3.5 -53.5t1.5 -48.5q0 -63 -34.5 -95.5t-111.5 -32.5h-13.5t-15.5 1v87h10q36 0 55 21.5t19 60.5q0 51 -4 102t-4 102q0 54 28 88.5t71 45.5q-43 11 -71 46t-28 89q0 51 4 102t4 102
q0 39 -19 60.5t-55 21.5h-10v87q8 1 15.5 1h13.5q77 0 111.5 -33t34.5 -96q0 -22 -1.5 -48t-3.5 -53t-3.5 -53t-1.5 -47q0 -73 24 -101t72 -28h4z" />
    <glyph glyph-name="asciitilde" unicode="~" 
d="M22 375q22 29 50.5 43t60.5 14q18 0 50 -9.5t67.5 -21t68 -21t50.5 -9.5q28 0 52 11.5t57 46.5v-82q-21 -29 -50 -43t-61 -14q-18 0 -50 9.5t-67.5 21t-68 21t-50.5 9.5q-14 0 -26.5 -2.5t-25.5 -9t-26.5 -17.5t-30.5 -29v82z" />
    <glyph glyph-name="nonbreakingspace" unicode="&#xa0;" 
 />
    <glyph glyph-name="exclamdown" unicode="&#xa1;" 
d="M192 274h115v-473h-115v473zM185 454q0 35 17.5 58.5t47.5 23.5q29 0 47 -22.5t18 -59.5q0 -33 -17 -58.5t-48 -25.5q-29 0 -47 24t-18 60z" />
    <glyph glyph-name="cent" unicode="&#xa2;" 
d="M290 732q142 -18 160 -189h-125q-3 39 -24.5 56.5t-49.5 17.5q-37 0 -58 -24t-21 -74v-313q0 -50 21 -74t58 -24q28 0 49.5 17t24.5 57h125q-18 -171 -160 -189v-94h-80v94q-79 10 -120 61.5t-41 147.5v321q0 95 41 147t120 62v94h80v-94z" />
    <glyph glyph-name="sterling" unicode="&#xa3;" 
d="M238 320q8 -24 13.5 -50.5t5.5 -62.5q0 -18 -1.5 -39t-5.5 -46h215v-122h-428v122h102q7 34 7 65q0 38 -9.5 70t-21.5 63h-70v80h41q-8 27 -13.5 56.5t-5.5 66.5q0 107 52 159.5t150 52.5q180 0 199 -192h-125q-2 39 -24 56.5t-50 17.5q-38 0 -58.5 -24t-20.5 -74
q0 -38 5 -66.5t13 -52.5h201v-80h-171z" />
    <glyph glyph-name="currency" unicode="&#xa4;" 
d="M428 359q0 -59 -19 -103l98 -97l-56 -57l-85 84q-22 -23 -51.5 -36.5t-63.5 -13.5q-36 0 -66 13.5t-53 37.5l-83 -84l-57 57l98 98q-17 45 -17 101t17 102l-98 99l57 57l83 -85q23 23 53 36.5t66 13.5q34 0 63 -13t51 -36l85 85l56 -57l-98 -98q20 -46 20 -104zM343 359
q0 63 -25.5 103.5t-66.5 40.5q-21 0 -38.5 -11t-29.5 -30.5t-18.5 -46t-6.5 -57.5q0 -30 7 -56.5t19.5 -45.5t29.5 -30t37 -11q42 0 67 40t25 104z" />
    <glyph glyph-name="yen" unicode="&#xa5;" 
d="M315 98v-98h-130v98h-158v80h158v92h-158v80h134l-149 375h153l88 -265l87 265h149l-149 -375h133v-80h-158v-92h158v-80h-158z" />
    <glyph glyph-name="brokenbar" unicode="&#xa6;" 
d="M290 438h-80v351h80v-351zM290 -169h-80v351h80v-351z" />
    <glyph glyph-name="section" unicode="&#xa7;" 
d="M463 260q0 -57 -18 -99.5t-53 -67.5q24 -44 24 -101q0 -92 -47.5 -146.5t-136.5 -54.5q-91 0 -136.5 44.5t-53.5 136.5h108q5 -35 25 -52t63 -17q31 0 49.5 19t18.5 51q0 27 -14.5 46.5t-52.5 39.5q-33 17 -67.5 35.5t-66.5 46.5q-30 26 -44 58t-14 83q0 54 20 94t56 64
q-29 39 -29 110q0 86 48.5 135.5t133.5 49.5q90 0 132 -45.5t43 -128.5h-105q0 35 -19.5 54t-53.5 19q-75 0 -75 -65q0 -26 11 -43t41 -35q19 -12 40.5 -21.5t42.5 -20t41 -23.5t37 -30q29 -28 40.5 -61t11.5 -75zM202 223q25 -15 50.5 -26t49.5 -24q23 5 37 22.5t14 45.5
q0 27 -14.5 46.5t-52.5 39.5q-19 9 -37 18t-37 20q-60 -5 -60 -64q0 -26 10.5 -43t39.5 -35z" />
    <glyph glyph-name="dieresis" unicode="&#xa8;" 
d="M422 632q0 -32 -17 -55t-48 -23q-32 0 -49 23t-17 55t17 56t49 24q29 0 47 -24.5t18 -55.5zM209 632q0 -32 -16.5 -55t-47.5 -23q-32 0 -49 23t-17 55t17 56t49 24q29 0 46.5 -24.5t17.5 -55.5z" />
    <glyph glyph-name="copyright" unicode="&#xa9;" 
d="M483 221q0 -110 -60 -170.5t-172 -60.5q-116 0 -175 63t-59 168v282q0 106 59 169t175 63q112 0 172 -60.5t60 -171.5v-282zM423 503q0 82 -44.5 126.5t-127.5 44.5q-87 0 -130 -46t-43 -125v-282q0 -78 43 -124t130 -46q83 0 127.5 44.5t44.5 125.5v282zM212 285
q0 -49 40 -49q14 0 24.5 8.5t11.5 28.5h63q-10 -96 -99 -96q-101 0 -101 106v160q0 106 101 106q89 0 99 -96h-63q-1 20 -11.5 28.5t-24.5 8.5q-40 0 -40 -49v-156z" />
    <glyph glyph-name="guillemotleft" unicode="&#xab;" 
d="M266 258v163l170 110v-105l-108 -88l108 -86v-104zM64 258v163l170 110v-105l-109 -88l109 -86v-104z" />
    <glyph glyph-name="logicalnot" unicode="&#xac;" 
d="M393 35v285h-366v80h446v-365h-80z" />
    <glyph glyph-name="registered" unicode="&#xae;" 
d="M483 221q0 -110 -60 -170.5t-172 -60.5q-116 0 -175 63t-59 168v282q0 106 59 169t175 63q112 0 172 -60.5t60 -171.5v-282zM423 503q0 82 -44.5 126.5t-127.5 44.5q-87 0 -130 -46t-43 -125v-282q0 -78 43 -124t130 -46q83 0 127.5 44.5t44.5 125.5v282zM365 182h-81
l-70 144v-144h-64v362h100q50 0 78.5 -28.5t28.5 -79.5q0 -45 -19.5 -68.5t-52.5 -32.5zM291 427q0 34 -13.5 46t-39.5 12h-24v-119h31q22 0 34 17t12 44z" />
    <glyph glyph-name="macron" unicode="&#xaf;" 
d="M68 569v80h365v-80h-365z" />
    <glyph glyph-name="degree" unicode="&#xb0;" 
d="M250 735q29 0 54.5 -10t45 -29.5t30.5 -49t11 -68.5t-11 -68t-30.5 -48t-45 -28.5t-54.5 -9.5t-54.5 9.5t-45 28.5t-31 48t-11.5 68t11.5 68.5t31 49t45 29.5t54.5 10zM250 674q-38 0 -59.5 -22.5t-21.5 -73.5t21.5 -71.5t59.5 -20.5t59.5 20.5t21.5 71.5t-21.5 73.5
t-59.5 22.5z" />
    <glyph glyph-name="plusminus" unicode="&#xb1;" 
d="M210 136v184h-183v80h183v182h80v-182h183v-80h-183v-184h-80zM27 -79v80h446v-80h-446z" />
    <glyph glyph-name="acute" unicode="&#xb4;" 
d="M234 557h-104l102 177h136z" />
    <glyph glyph-name="paragraph" unicode="&#xb6;" 
d="M20 576q0 68 34.5 108.5t100.5 40.5h298v-860h-80v787h-90v-787h-80v559h-47q-136 0 -136 152zM103 577q0 -76 62 -76h38v151h-38q-33 0 -47.5 -18.5t-14.5 -56.5z" />
    <glyph glyph-name="periodcentered" unicode="&#xb7;" 
d="M315 352q0 -32 -16.5 -55t-47.5 -23q-32 0 -49 23t-17 55t17 56t49 24q29 0 46.5 -24.5t17.5 -55.5z" />
    <glyph glyph-name="cedilla" unicode="&#xb8;" 
d="M313 -43l-57 -197l-85 21l38 202z" />
    <glyph glyph-name="guillemotright" unicode="&#xbb;" 
d="M266 148v104l108 86l-108 88v105l170 -110v-163zM64 148v104l108 86l-108 88v105l170 -110v-163z" />
    <glyph glyph-name="questiondown" unicode="&#xbf;" 
d="M72 -20q0 35 7.5 66t27.5 55q22 27 41.5 45t33.5 33.5t22.5 31.5t8.5 40v14h116v-37q0 -32 -15.5 -68t-52.5 -68q-20 -17 -33 -30.5t-21 -26.5t-11 -27t-3 -32q0 -30 13.5 -51t47.5 -21q57 0 63 76h113q-1 -41 -14 -75.5t-36 -60t-55.5 -39.5t-73.5 -14q-47 0 -80.5 14.5
t-55.5 40t-32.5 60t-10.5 74.5zM203 453q0 36 18.5 59.5t48.5 23.5q31 0 48 -25.5t17 -57.5q0 -33 -17 -58t-48 -25q-33 0 -50 25t-17 58z" />
    <glyph glyph-name="Agrave" unicode="&#xc0;" 
d="M468 0h-138l-25 117h-118l-25 -117h-130l153 725h129zM285 230l-38 230l-41 -230h79zM82 960h136l103 -177h-105z" />
    <glyph glyph-name="Aacute" unicode="&#xc1;" 
d="M468 0h-138l-25 117h-118l-25 -117h-130l153 725h129zM285 230l-38 230l-41 -230h79zM285 783h-104l102 177h136z" />
    <glyph glyph-name="Acircumflex" unicode="&#xc2;" 
d="M468 0h-138l-25 117h-118l-25 -117h-130l153 725h129zM285 230l-38 230l-41 -230h79zM169 960h163l110 -170h-105l-88 108l-86 -108h-104z" />
    <glyph glyph-name="Atilde" unicode="&#xc3;" 
d="M468 0h-138l-25 117h-118l-25 -117h-130l153 725h129zM285 230l-38 230l-41 -230h79zM22 861q22 29 50.5 42.5t60.5 13.5q18 0 50 -9.5t67.5 -20.5t68 -20.5t50.5 -9.5q29 0 52.5 11t56.5 46v-81q-21 -29 -50 -43t-61 -14q-18 0 -50 9.5t-67.5 21t-68 21t-50.5 9.5
q-14 0 -26.5 -2.5t-25.5 -9t-26.5 -18t-30.5 -28.5v82z" />
    <glyph glyph-name="Adieresis" unicode="&#xc4;" 
d="M468 0h-138l-25 117h-118l-25 -117h-130l153 725h129zM285 230l-38 230l-41 -230h79zM422 858q0 -32 -17 -55t-48 -23q-32 0 -49 23t-17 55t17 56t49 24q29 0 47 -24.5t18 -55.5zM209 858q0 -32 -16.5 -55t-47.5 -23q-32 0 -49 23t-17 55t17 56t49 24q29 0 46.5 -24.5
t17.5 -55.5z" />
    <glyph glyph-name="Aring" unicode="&#xc5;" 
d="M468 0h-138l-25 117h-118l-25 -117h-130l153 725h129zM285 230l-38 230l-41 -230h79zM250 960q29 0 54.5 -7.5t45 -22t30.5 -36.5t11 -51t-11 -51t-30.5 -36.5t-45 -21.5t-54.5 -7t-54.5 7t-45 21.5t-31 36.5t-11.5 51t11.5 51t31 36.5t45 22t54.5 7.5zM250 900
q-31 0 -48 -13.5t-17 -43.5q0 -31 17 -43t48 -12q30 0 47.5 12t17.5 43q0 30 -17.5 43.5t-47.5 13.5z" />
    <glyph glyph-name="AE" unicode="&#xc6;" 
d="M248 0v116h-106l-17 -116h-120l102 725h384v-115h-126v-185h126v-117h-126v-186h126v-122h-243zM248 610h-49l-44 -375h93v375z" />
    <glyph glyph-name="Ccedilla" unicode="&#xc7;" 
d="M172 206q0 -50 21 -74t58 -24q28 0 49.5 17t24.5 57h125q-19 -192 -199 -192q-99 0 -150.5 52.5t-51.5 159.5v321q0 107 51.5 159.5t150.5 52.5q180 0 199 -192h-125q-3 39 -24.5 56.5t-49.5 17.5q-37 0 -58 -24t-21 -74v-313zM308 -43l-57 -197l-85 21l38 202z" />
    <glyph glyph-name="Egrave" unicode="&#xc8;" 
d="M435 0h-368v725h368v-115h-239v-185h189v-117h-189v-186h239v-122zM82 960h136l103 -177h-105z" />
    <glyph glyph-name="Eacute" unicode="&#xc9;" 
d="M435 0h-368v725h368v-115h-239v-185h189v-117h-189v-186h239v-122zM285 783h-104l102 177h136z" />
    <glyph glyph-name="Ecircumflex" unicode="&#xca;" 
d="M435 0h-368v725h368v-115h-239v-185h189v-117h-189v-186h239v-122zM169 960h163l110 -170h-105l-88 108l-86 -108h-104z" />
    <glyph glyph-name="Edieresis" unicode="&#xcb;" 
d="M435 0h-368v725h368v-115h-239v-185h189v-117h-189v-186h239v-122zM422 858q0 -32 -17 -55t-48 -23q-32 0 -49 23t-17 55t17 56t49 24q29 0 47 -24.5t18 -55.5zM209 858q0 -32 -16.5 -55t-47.5 -23q-32 0 -49 23t-17 55t17 56t49 24q29 0 46.5 -24.5t17.5 -55.5z" />
    <glyph glyph-name="Igrave" unicode="&#xcc;" 
d="M420 0h-339v116h109v494h-109v115h339v-115h-107v-494h107v-116zM82 960h136l103 -177h-105z" />
    <glyph glyph-name="Iacute" unicode="&#xcd;" 
d="M420 0h-339v116h109v494h-109v115h339v-115h-107v-494h107v-116zM285 783h-104l102 177h136z" />
    <glyph glyph-name="Icircumflex" unicode="&#xce;" 
d="M420 0h-339v116h109v494h-109v115h339v-115h-107v-494h107v-116zM169 960h163l110 -170h-105l-88 108l-86 -108h-104z" />
    <glyph glyph-name="Idieresis" unicode="&#xcf;" 
d="M420 0h-339v116h109v494h-109v115h339v-115h-107v-494h107v-116zM422 858q0 -32 -17 -55t-48 -23q-32 0 -49 23t-17 55t17 56t49 24q29 0 47 -24.5t18 -55.5zM209 858q0 -32 -16.5 -55t-47.5 -23q-32 0 -49 23t-17 55t17 56t49 24q29 0 46.5 -24.5t17.5 -55.5z" />
    <glyph glyph-name="Eth" unicode="&#xd0;" 
d="M463 222q0 -218 -197 -218h-207v296h-34v117h34v308h207q197 0 197 -222v-281zM282 300h-102v-181h86q77 0 77 110v266q0 52 -20.5 86t-56.5 34h-86v-198h102v-117z" />
    <glyph glyph-name="Ntilde" unicode="&#xd1;" 
d="M455 0h-127l-165 424v-424h-118v725h148l147 -424v424h115v-725zM22 861q22 29 50.5 42.5t60.5 13.5q18 0 50 -9.5t67.5 -20.5t68 -20.5t50.5 -9.5q29 0 52.5 11t56.5 46v-81q-21 -29 -50 -43t-61 -14q-18 0 -50 9.5t-67.5 21t-68 21t-50.5 9.5q-14 0 -26.5 -2.5
t-25.5 -9t-26.5 -18t-30.5 -28.5v82z" />
    <glyph glyph-name="Ograve" unicode="&#xd2;" 
d="M459 221q0 -110 -54 -170.5t-154 -60.5q-104 0 -157 63t-53 168v282q0 106 53 169t157 63q100 0 154 -60.5t54 -171.5v-282zM164 202q0 -53 25 -77.5t62 -24.5q36 0 61 25.5t25 76.5v321q0 51 -25 76.5t-61 25.5q-37 0 -62 -25t-25 -77v-321zM82 960h136l103 -177h-105z
" />
    <glyph glyph-name="Oacute" unicode="&#xd3;" 
d="M459 221q0 -110 -54 -170.5t-154 -60.5q-104 0 -157 63t-53 168v282q0 106 53 169t157 63q100 0 154 -60.5t54 -171.5v-282zM164 202q0 -53 25 -77.5t62 -24.5q36 0 61 25.5t25 76.5v321q0 51 -25 76.5t-61 25.5q-37 0 -62 -25t-25 -77v-321zM285 783h-104l102 177h136z
" />
    <glyph glyph-name="Ocircumflex" unicode="&#xd4;" 
d="M459 221q0 -110 -54 -170.5t-154 -60.5q-104 0 -157 63t-53 168v282q0 106 53 169t157 63q100 0 154 -60.5t54 -171.5v-282zM164 202q0 -53 25 -77.5t62 -24.5q36 0 61 25.5t25 76.5v321q0 51 -25 76.5t-61 25.5q-37 0 -62 -25t-25 -77v-321zM169 960h163l110 -170h-105
l-88 108l-86 -108h-104z" />
    <glyph glyph-name="Otilde" unicode="&#xd5;" 
d="M459 221q0 -110 -54 -170.5t-154 -60.5q-104 0 -157 63t-53 168v282q0 106 53 169t157 63q100 0 154 -60.5t54 -171.5v-282zM164 202q0 -53 25 -77.5t62 -24.5q36 0 61 25.5t25 76.5v321q0 51 -25 76.5t-61 25.5q-37 0 -62 -25t-25 -77v-321zM22 861q22 29 50.5 42.5
t60.5 13.5q18 0 50 -9.5t67.5 -20.5t68 -20.5t50.5 -9.5q29 0 52.5 11t56.5 46v-81q-21 -29 -50 -43t-61 -14q-18 0 -50 9.5t-67.5 21t-68 21t-50.5 9.5q-14 0 -26.5 -2.5t-25.5 -9t-26.5 -18t-30.5 -28.5v82z" />
    <glyph glyph-name="Odieresis" unicode="&#xd6;" 
d="M459 221q0 -110 -54 -170.5t-154 -60.5q-104 0 -157 63t-53 168v282q0 106 53 169t157 63q100 0 154 -60.5t54 -171.5v-282zM164 202q0 -53 25 -77.5t62 -24.5q36 0 61 25.5t25 76.5v321q0 51 -25 76.5t-61 25.5q-37 0 -62 -25t-25 -77v-321zM422 858q0 -32 -17 -55
t-48 -23q-32 0 -49 23t-17 55t17 56t49 24q29 0 47 -24.5t18 -55.5zM209 858q0 -32 -16.5 -55t-47.5 -23q-32 0 -49 23t-17 55t17 56t49 24q29 0 46.5 -24.5t17.5 -55.5z" />
    <glyph glyph-name="multiply" unicode="&#xd7;" 
d="M65 229l130 131l-129 129l55 57l130 -129l129 128l57 -57l-130 -128l130 -130l-57 -56l-129 129l-130 -130z" />
    <glyph glyph-name="Oslash" unicode="&#xd8;" 
d="M429 639q30 -54 30 -136v-282q0 -110 -54 -170.5t-154 -60.5q-75 0 -124 33l-40 -84h-87l72 147q-31 56 -31 135v282q0 106 53 169t157 63q73 0 121 -33l41 84h87zM164 274l154 316q-12 18 -29.5 26.5t-37.5 8.5q-37 0 -62 -25t-25 -77v-249zM251 100q36 0 61 25.5
t25 76.5v248l-155 -317q11 -17 29 -25t40 -8z" />
    <glyph glyph-name="Ugrave" unicode="&#xd9;" 
d="M462 206q0 -112 -56.5 -164t-154.5 -52q-101 0 -157 53t-56 163v519h124v-512q0 -54 26 -82t63 -28q36 0 62.5 28t26.5 82v512h122v-519zM82 960h136l103 -177h-105z" />
    <glyph glyph-name="Uacute" unicode="&#xda;" 
d="M462 206q0 -112 -56.5 -164t-154.5 -52q-101 0 -157 53t-56 163v519h124v-512q0 -54 26 -82t63 -28q36 0 62.5 28t26.5 82v512h122v-519zM285 783h-104l102 177h136z" />
    <glyph glyph-name="Ucircumflex" unicode="&#xdb;" 
d="M462 206q0 -112 -56.5 -164t-154.5 -52q-101 0 -157 53t-56 163v519h124v-512q0 -54 26 -82t63 -28q36 0 62.5 28t26.5 82v512h122v-519zM169 960h163l110 -170h-105l-88 108l-86 -108h-104z" />
    <glyph glyph-name="Udieresis" unicode="&#xdc;" 
d="M462 206q0 -112 -56.5 -164t-154.5 -52q-101 0 -157 53t-56 163v519h124v-512q0 -54 26 -82t63 -28q36 0 62.5 28t26.5 82v512h122v-519zM422 858q0 -32 -17 -55t-48 -23q-32 0 -49 23t-17 55t17 56t49 24q29 0 47 -24.5t18 -55.5zM209 858q0 -32 -16.5 -55t-47.5 -23
q-32 0 -49 23t-17 55t17 56t49 24q29 0 46.5 -24.5t17.5 -55.5z" />
    <glyph glyph-name="Yacute" unicode="&#xdd;" 
d="M489 725l-174 -436v-289h-130v289l-173 436h153l88 -265l87 265h149zM285 783h-104l102 177h136z" />
    <glyph glyph-name="Thorn" unicode="&#xde;" 
d="M469 368q0 -121 -52.5 -181.5t-162.5 -60.5h-75v-126h-128v725h128v-115h75q110 0 162.5 -60.5t52.5 -181.5zM338 368q0 119 -99 119h-60v-238h60q99 0 99 119z" />
    <glyph glyph-name="germandbls" unicode="&#xdf;" 
d="M167 0h-105v550q0 41 14 75t39 58.5t60 38t76 13.5q42 0 77.5 -13.5t60.5 -39.5t39 -63t14 -84q0 -63 -22.5 -97.5t-57.5 -55.5q46 -20 71 -60t25 -109q0 -50 -14 -91.5t-40 -70.5t-64.5 -45t-87.5 -16v116q38 0 65 29.5t27 83.5t-24.5 84.5t-57.5 30.5v90q33 0 55 26.5
t22 74.5q0 45 -21.5 73t-66.5 28q-36 0 -60 -23t-24 -70v-533z" />
    <glyph glyph-name="agrave" unicode="&#xe0;" 
d="M338 191q-15 9 -38 16t-49 7q-44 0 -62.5 -19.5t-18.5 -48.5q0 -33 20.5 -47.5t55.5 -14.5q31 0 57 22.5t35 50.5v34zM453 0h-103v86q-17 -39 -50.5 -67.5t-88.5 -28.5q-44 0 -75 11.5t-50.5 32t-28.5 49t-9 63.5q0 81 40 119t120 38q54 0 84 -7.5t46 -21.5v54
q0 39 -22.5 60t-61.5 21q-61 0 -80 -55l-106 34q11 35 31 58.5t45 37.5t53.5 19.5t55.5 5.5q54 0 92 -12.5t62 -36t35 -56.5t11 -73v-331zM82 734h136l103 -177h-105z" />
    <glyph glyph-name="aacute" unicode="&#xe1;" 
d="M338 191q-15 9 -38 16t-49 7q-44 0 -62.5 -19.5t-18.5 -48.5q0 -33 20.5 -47.5t55.5 -14.5q31 0 57 22.5t35 50.5v34zM453 0h-103v86q-17 -39 -50.5 -67.5t-88.5 -28.5q-44 0 -75 11.5t-50.5 32t-28.5 49t-9 63.5q0 81 40 119t120 38q54 0 84 -7.5t46 -21.5v54
q0 39 -22.5 60t-61.5 21q-61 0 -80 -55l-106 34q11 35 31 58.5t45 37.5t53.5 19.5t55.5 5.5q54 0 92 -12.5t62 -36t35 -56.5t11 -73v-331zM285 557h-104l102 177h136z" />
    <glyph glyph-name="acircumflex" unicode="&#xe2;" 
d="M338 191q-15 9 -38 16t-49 7q-44 0 -62.5 -19.5t-18.5 -48.5q0 -33 20.5 -47.5t55.5 -14.5q31 0 57 22.5t35 50.5v34zM453 0h-103v86q-17 -39 -50.5 -67.5t-88.5 -28.5q-44 0 -75 11.5t-50.5 32t-28.5 49t-9 63.5q0 81 40 119t120 38q54 0 84 -7.5t46 -21.5v54
q0 39 -22.5 60t-61.5 21q-61 0 -80 -55l-106 34q11 35 31 58.5t45 37.5t53.5 19.5t55.5 5.5q54 0 92 -12.5t62 -36t35 -56.5t11 -73v-331zM169 734h163l110 -170h-105l-88 108l-86 -108h-104z" />
    <glyph glyph-name="atilde" unicode="&#xe3;" 
d="M338 191q-15 9 -38 16t-49 7q-44 0 -62.5 -19.5t-18.5 -48.5q0 -33 20.5 -47.5t55.5 -14.5q31 0 57 22.5t35 50.5v34zM453 0h-103v86q-17 -39 -50.5 -67.5t-88.5 -28.5q-44 0 -75 11.5t-50.5 32t-28.5 49t-9 63.5q0 81 40 119t120 38q54 0 84 -7.5t46 -21.5v54
q0 39 -22.5 60t-61.5 21q-61 0 -80 -55l-106 34q11 35 31 58.5t45 37.5t53.5 19.5t55.5 5.5q54 0 92 -12.5t62 -36t35 -56.5t11 -73v-331zM22 635q22 29 50.5 42.5t60.5 13.5q18 0 50 -9.5t67.5 -20.5t68 -20.5t50.5 -9.5q29 0 52.5 11t56.5 46v-81q-21 -29 -50 -43t-61 -14
q-18 0 -50 9.5t-67.5 21t-68 21t-50.5 9.5q-14 0 -26.5 -2.5t-25.5 -9t-26.5 -18t-30.5 -28.5v82z" />
    <glyph glyph-name="adieresis" unicode="&#xe4;" 
d="M338 191q-15 9 -38 16t-49 7q-44 0 -62.5 -19.5t-18.5 -48.5q0 -33 20.5 -47.5t55.5 -14.5q31 0 57 22.5t35 50.5v34zM453 0h-103v86q-17 -39 -50.5 -67.5t-88.5 -28.5q-44 0 -75 11.5t-50.5 32t-28.5 49t-9 63.5q0 81 40 119t120 38q54 0 84 -7.5t46 -21.5v54
q0 39 -22.5 60t-61.5 21q-61 0 -80 -55l-106 34q11 35 31 58.5t45 37.5t53.5 19.5t55.5 5.5q54 0 92 -12.5t62 -36t35 -56.5t11 -73v-331zM422 632q0 -32 -17 -55t-48 -23q-32 0 -49 23t-17 55t17 56t49 24q29 0 47 -24.5t18 -55.5zM209 632q0 -32 -16.5 -55t-47.5 -23
q-32 0 -49 23t-17 55t17 56t49 24q29 0 46.5 -24.5t17.5 -55.5z" />
    <glyph glyph-name="aring" unicode="&#xe5;" 
d="M338 191q-15 9 -38 16t-49 7q-44 0 -62.5 -19.5t-18.5 -48.5q0 -33 20.5 -47.5t55.5 -14.5q31 0 57 22.5t35 50.5v34zM453 0h-103v86q-17 -39 -50.5 -67.5t-88.5 -28.5q-44 0 -75 11.5t-50.5 32t-28.5 49t-9 63.5q0 81 40 119t120 38q54 0 84 -7.5t46 -21.5v54
q0 39 -22.5 60t-61.5 21q-61 0 -80 -55l-106 34q11 35 31 58.5t45 37.5t53.5 19.5t55.5 5.5q54 0 92 -12.5t62 -36t35 -56.5t11 -73v-331zM250 785q29 0 54.5 -7.5t45 -22t30.5 -36.5t11 -51t-11 -51t-30.5 -36.5t-45 -21.5t-54.5 -7t-54.5 7t-45 21.5t-31 36.5t-11.5 51
t11.5 51t31 36.5t45 22t54.5 7.5zM250 725q-31 0 -48 -13.5t-17 -43.5q0 -31 17 -43t48 -12q30 0 47.5 12t17.5 43q0 30 -17.5 43.5t-47.5 13.5z" />
    <glyph glyph-name="ae" unicode="&#xe6;" 
d="M244 86q-14 -48 -45.5 -72t-71.5 -24q-51 0 -85.5 36t-34.5 120q0 32 6 61t19.5 50.5t34.5 34t52 12.5q44 0 77 -41v65q0 40 -10 58t-30 18q-19 0 -30 -10.5t-19 -39.5l-84 34q20 65 52 93t74 28q36 0 59.5 -16t40.5 -50q20 32 46 49t62 17q64 0 99.5 -68t37.5 -217h-199
q0 -72 15 -103.5t38 -31.5q17 0 27.5 12t18.5 43l86 -27q-8 -23 -18.5 -45.5t-26 -40.5t-36.5 -29.5t-51 -11.5q-40 0 -68 24.5t-36 71.5zM403 275q-2 69 -14.5 97.5t-35.5 28.5q-24 0 -40 -28.5t-19 -97.5h109zM196 191q-25 22 -50 22q-42 0 -42 -67q0 -27 10 -44.5
t27 -17.5q16 0 31 18.5t24 47.5v41z" />
    <glyph glyph-name="ccedilla" unicode="&#xe7;" 
d="M457 67q-30 -40 -71.5 -58.5t-98.5 -18.5t-103 19t-78.5 53t-50 82t-17.5 105t18.5 104.5t52.5 82t82 54t107 19.5q28 0 53 -6.5t44.5 -16t33 -20.5t19.5 -21l-66 -90q-14 17 -36 27.5t-58 10.5q-55 0 -92.5 -35t-37.5 -110q0 -70 36 -106.5t94 -36.5q26 0 55 13t46 39z
M321 -43l-57 -197l-85 21l38 202z" />
    <glyph glyph-name="egrave" unicode="&#xe8;" 
d="M153 224q5 -66 32.5 -97t75.5 -31q57 0 80 54l111 -27q-26 -67 -76 -100t-120 -33q-50 0 -91.5 18.5t-71 52.5t-46 81t-16.5 104q0 62 16.5 111t46 82.5t70 51.5t89.5 18q101 0 156.5 -74t59.5 -211h-316zM353 275q-2 61 -29.5 94t-69.5 33q-46 0 -72 -33t-31 -94h202z
M82 734h136l103 -177h-105z" />
    <glyph glyph-name="eacute" unicode="&#xe9;" 
d="M153 224q5 -66 32.5 -97t75.5 -31q57 0 80 54l111 -27q-26 -67 -76 -100t-120 -33q-50 0 -91.5 18.5t-71 52.5t-46 81t-16.5 104q0 62 16.5 111t46 82.5t70 51.5t89.5 18q101 0 156.5 -74t59.5 -211h-316zM353 275q-2 61 -29.5 94t-69.5 33q-46 0 -72 -33t-31 -94h202z
M285 557h-104l102 177h136z" />
    <glyph glyph-name="ecircumflex" unicode="&#xea;" 
d="M153 224q5 -66 32.5 -97t75.5 -31q57 0 80 54l111 -27q-26 -67 -76 -100t-120 -33q-50 0 -91.5 18.5t-71 52.5t-46 81t-16.5 104q0 62 16.5 111t46 82.5t70 51.5t89.5 18q101 0 156.5 -74t59.5 -211h-316zM353 275q-2 61 -29.5 94t-69.5 33q-46 0 -72 -33t-31 -94h202z
M169 734h163l110 -170h-105l-88 108l-86 -108h-104z" />
    <glyph glyph-name="edieresis" unicode="&#xeb;" 
d="M153 224q5 -66 32.5 -97t75.5 -31q57 0 80 54l111 -27q-26 -67 -76 -100t-120 -33q-50 0 -91.5 18.5t-71 52.5t-46 81t-16.5 104q0 62 16.5 111t46 82.5t70 51.5t89.5 18q101 0 156.5 -74t59.5 -211h-316zM353 275q-2 61 -29.5 94t-69.5 33q-46 0 -72 -33t-31 -94h202z
M422 632q0 -32 -17 -55t-48 -23q-32 0 -49 23t-17 55t17 56t49 24q29 0 47 -24.5t18 -55.5zM209 632q0 -32 -16.5 -55t-47.5 -23q-32 0 -49 23t-17 55t17 56t49 24q29 0 46.5 -24.5t17.5 -55.5z" />
    <glyph glyph-name="igrave" unicode="&#xec;" 
d="M409 0h-318v116h108v266h-108v116h223v-382h95v-116zM82 734h136l103 -177h-105z" />
    <glyph glyph-name="iacute" unicode="&#xed;" 
d="M409 0h-318v116h108v266h-108v116h223v-382h95v-116zM285 557h-104l102 177h136z" />
    <glyph glyph-name="icircumflex" unicode="&#xee;" 
d="M409 0h-318v116h108v266h-108v116h223v-382h95v-116zM169 734h163l110 -170h-105l-88 108l-86 -108h-104z" />
    <glyph glyph-name="idieresis" unicode="&#xef;" 
d="M409 0h-318v116h108v266h-108v116h223v-382h95v-116zM422 632q0 -32 -17 -55t-48 -23q-32 0 -49 23t-17 55t17 56t49 24q29 0 47 -24.5t18 -55.5zM209 632q0 -32 -16.5 -55t-47.5 -23q-32 0 -49 23t-17 55t17 56t49 24q29 0 46.5 -24.5t17.5 -55.5z" />
    <glyph glyph-name="eth" unicode="&#xf0;" 
d="M450 674l-75 -40q12 -25 22.5 -49.5t20.5 -49.5q25 -72 35.5 -145.5t10.5 -152.5q0 -53 -15.5 -98t-43.5 -78t-67.5 -52t-86.5 -19q-48 0 -88 18.5t-68 51.5t-43.5 78.5t-15.5 98.5q0 52 15 97t43 78t68 52t89 19q34 0 65 -11q-8 29 -17 56.5t-20 54.5l-77 -41l-26 50
l80 43q-10 19 -21 37l-22 36l92 47q11 -18 22.5 -35.5t21.5 -35.5l74 40zM343 240q0 59 -25.5 97t-66.5 38q-43 0 -68 -39t-25 -97q0 -29 7 -53.5t19.5 -42.5t29.5 -28t37 -10q42 0 67 37.5t25 97.5z" />
    <glyph glyph-name="ntilde" unicode="&#xf1;" 
d="M454 0h-116v302q0 48 -20 73.5t-61 25.5q-42 0 -62.5 -25t-20.5 -73v-303h-116v498h116v-103q26 62 66.5 88t87.5 26q63 0 94.5 -41t31.5 -115v-353zM22 635q22 29 50.5 42.5t60.5 13.5q18 0 50 -9.5t67.5 -20.5t68 -20.5t50.5 -9.5q29 0 52.5 11t56.5 46v-81
q-21 -29 -50 -43t-61 -14q-18 0 -50 9.5t-67.5 21t-68 21t-50.5 9.5q-14 0 -26.5 -2.5t-25.5 -9t-26.5 -18t-30.5 -28.5v82z" />
    <glyph glyph-name="ograve" unicode="&#xf2;" 
d="M464 249q0 -55 -15.5 -102.5t-43.5 -82t-67.5 -54.5t-86.5 -20q-48 0 -88 19.5t-68 54t-43.5 82t-15.5 103.5q0 55 15 102.5t43 82.5t68 55t89 20q48 0 87.5 -20t67 -55.5t43 -83t15.5 -101.5zM343 249q0 63 -25.5 103.5t-66.5 40.5q-21 0 -38.5 -11t-29.5 -30.5
t-18.5 -46t-6.5 -57.5q0 -30 7 -56.5t19.5 -45.5t29.5 -30t37 -11q42 0 67 40t25 104zM82 734h136l103 -177h-105z" />
    <glyph glyph-name="oacute" unicode="&#xf3;" 
d="M464 249q0 -55 -15.5 -102.5t-43.5 -82t-67.5 -54.5t-86.5 -20q-48 0 -88 19.5t-68 54t-43.5 82t-15.5 103.5q0 55 15 102.5t43 82.5t68 55t89 20q48 0 87.5 -20t67 -55.5t43 -83t15.5 -101.5zM343 249q0 63 -25.5 103.5t-66.5 40.5q-21 0 -38.5 -11t-29.5 -30.5
t-18.5 -46t-6.5 -57.5q0 -30 7 -56.5t19.5 -45.5t29.5 -30t37 -11q42 0 67 40t25 104zM285 557h-104l102 177h136z" />
    <glyph glyph-name="ocircumflex" unicode="&#xf4;" 
d="M464 249q0 -55 -15.5 -102.5t-43.5 -82t-67.5 -54.5t-86.5 -20q-48 0 -88 19.5t-68 54t-43.5 82t-15.5 103.5q0 55 15 102.5t43 82.5t68 55t89 20q48 0 87.5 -20t67 -55.5t43 -83t15.5 -101.5zM343 249q0 63 -25.5 103.5t-66.5 40.5q-21 0 -38.5 -11t-29.5 -30.5
t-18.5 -46t-6.5 -57.5q0 -30 7 -56.5t19.5 -45.5t29.5 -30t37 -11q42 0 67 40t25 104zM169 734h163l110 -170h-105l-88 108l-86 -108h-104z" />
    <glyph glyph-name="otilde" unicode="&#xf5;" 
d="M464 249q0 -55 -15.5 -102.5t-43.5 -82t-67.5 -54.5t-86.5 -20q-48 0 -88 19.5t-68 54t-43.5 82t-15.5 103.5q0 55 15 102.5t43 82.5t68 55t89 20q48 0 87.5 -20t67 -55.5t43 -83t15.5 -101.5zM343 249q0 63 -25.5 103.5t-66.5 40.5q-21 0 -38.5 -11t-29.5 -30.5
t-18.5 -46t-6.5 -57.5q0 -30 7 -56.5t19.5 -45.5t29.5 -30t37 -11q42 0 67 40t25 104zM22 635q22 29 50.5 42.5t60.5 13.5q18 0 50 -9.5t67.5 -20.5t68 -20.5t50.5 -9.5q29 0 52.5 11t56.5 46v-81q-21 -29 -50 -43t-61 -14q-18 0 -50 9.5t-67.5 21t-68 21t-50.5 9.5
q-14 0 -26.5 -2.5t-25.5 -9t-26.5 -18t-30.5 -28.5v82z" />
    <glyph glyph-name="odieresis" unicode="&#xf6;" 
d="M464 249q0 -55 -15.5 -102.5t-43.5 -82t-67.5 -54.5t-86.5 -20q-48 0 -88 19.5t-68 54t-43.5 82t-15.5 103.5q0 55 15 102.5t43 82.5t68 55t89 20q48 0 87.5 -20t67 -55.5t43 -83t15.5 -101.5zM343 249q0 63 -25.5 103.5t-66.5 40.5q-21 0 -38.5 -11t-29.5 -30.5
t-18.5 -46t-6.5 -57.5q0 -30 7 -56.5t19.5 -45.5t29.5 -30t37 -11q42 0 67 40t25 104zM422 632q0 -32 -17 -55t-48 -23q-32 0 -49 23t-17 55t17 56t49 24q29 0 47 -24.5t18 -55.5zM209 632q0 -32 -16.5 -55t-47.5 -23q-32 0 -49 23t-17 55t17 56t49 24q29 0 46.5 -24.5
t17.5 -55.5z" />
    <glyph glyph-name="divide" unicode="&#xf7;" 
d="M27 320v80h446v-80h-446zM315 580q0 -32 -16.5 -55t-47.5 -23q-32 0 -49 23t-17 55t17 56t49 24q29 0 46.5 -24.5t17.5 -55.5zM315 141q0 -32 -16.5 -55t-47.5 -23q-32 0 -49 23t-17 55t17 56t49 24q29 0 46.5 -24.5t17.5 -55.5z" />
    <glyph glyph-name="oslash" unicode="&#xf8;" 
d="M411 425q26 -35 39.5 -80t13.5 -96q0 -55 -15.5 -102.5t-43.5 -82t-67.5 -54.5t-86.5 -20q-62 0 -107 30l-54 -81h-90l88 134q-25 34 -38.5 78.5t-13.5 97.5q0 55 15 102.5t43 82.5t68 55t89 20q29 0 55.5 -8.5t49.5 -23.5l54 82h90zM343 249q0 31 -8 60l-126 -190
q19 -14 42 -14q42 0 67 40t25 104zM158 248q0 -35 7 -59l126 191q-20 13 -40 13q-21 0 -38.5 -11t-29.5 -30.5t-18.5 -46t-6.5 -57.5z" />
    <glyph glyph-name="ugrave" unicode="&#xf9;" 
d="M453 184q0 -92 -55 -143t-147 -51q-93 0 -148 51t-55 143v314h116v-305q0 -25 7.5 -42t19.5 -28t27.5 -16t32.5 -5q16 0 31.5 5t27.5 16t19.5 28t7.5 42v305h116v-314zM82 734h136l103 -177h-105z" />
    <glyph glyph-name="uacute" unicode="&#xfa;" 
d="M453 184q0 -92 -55 -143t-147 -51q-93 0 -148 51t-55 143v314h116v-305q0 -25 7.5 -42t19.5 -28t27.5 -16t32.5 -5q16 0 31.5 5t27.5 16t19.5 28t7.5 42v305h116v-314zM285 557h-104l102 177h136z" />
    <glyph glyph-name="ucircumflex" unicode="&#xfb;" 
d="M453 184q0 -92 -55 -143t-147 -51q-93 0 -148 51t-55 143v314h116v-305q0 -25 7.5 -42t19.5 -28t27.5 -16t32.5 -5q16 0 31.5 5t27.5 16t19.5 28t7.5 42v305h116v-314zM169 734h163l110 -170h-105l-88 108l-86 -108h-104z" />
    <glyph glyph-name="udieresis" unicode="&#xfc;" 
d="M453 184q0 -92 -55 -143t-147 -51q-93 0 -148 51t-55 143v314h116v-305q0 -25 7.5 -42t19.5 -28t27.5 -16t32.5 -5q16 0 31.5 5t27.5 16t19.5 28t7.5 42v305h116v-314zM422 632q0 -32 -17 -55t-48 -23q-32 0 -49 23t-17 55t17 56t49 24q29 0 47 -24.5t18 -55.5zM209 632
q0 -32 -16.5 -55t-47.5 -23q-32 0 -49 23t-17 55t17 56t49 24q29 0 46.5 -24.5t17.5 -55.5z" />
    <glyph glyph-name="yacute" unicode="&#xfd;" 
d="M475 498l-209 -697h-129l54 174l-166 523h131l100 -347l99 347h120zM285 557h-104l102 177h136z" />
    <glyph glyph-name="thorn" unicode="&#xfe;" 
d="M41 725h116v-332q23 65 60 90.5t77 25.5q45 0 76 -17.5t51 -50.5t29 -81t9 -109q0 -125 -37.5 -193t-127.5 -68q-40 0 -77 25t-60 90v-304h-116v924zM338 252q0 76 -24 116t-66 40q-20 0 -37 -12t-29 -33t-18.5 -50t-6.5 -62v-3q0 -33 6.5 -62t18.5 -50.5t29 -33.5
t37 -12q42 0 66 41t24 121z" />
    <glyph glyph-name="ydieresis" unicode="&#xff;" 
d="M475 498l-209 -697h-129l54 174l-166 523h131l100 -347l99 347h120zM422 632q0 -32 -17 -55t-48 -23q-32 0 -49 23t-17 55t17 56t49 24q29 0 47 -24.5t18 -55.5zM209 632q0 -32 -16.5 -55t-47.5 -23q-32 0 -49 23t-17 55t17 56t49 24q29 0 46.5 -24.5t17.5 -55.5z" />
    <glyph glyph-name="Amacron" unicode="&#x100;" 
d="M468 0h-138l-25 117h-118l-25 -117h-130l153 725h129zM285 230l-38 230l-41 -230h79zM68 795v80h365v-80h-365z" />
    <glyph glyph-name="amacron" unicode="&#x101;" 
d="M338 191q-15 9 -38 16t-49 7q-44 0 -62.5 -19.5t-18.5 -48.5q0 -33 20.5 -47.5t55.5 -14.5q31 0 57 22.5t35 50.5v34zM453 0h-103v86q-17 -39 -50.5 -67.5t-88.5 -28.5q-44 0 -75 11.5t-50.5 32t-28.5 49t-9 63.5q0 81 40 119t120 38q54 0 84 -7.5t46 -21.5v54
q0 39 -22.5 60t-61.5 21q-61 0 -80 -55l-106 34q11 35 31 58.5t45 37.5t53.5 19.5t55.5 5.5q54 0 92 -12.5t62 -36t35 -56.5t11 -73v-331zM68 569v80h365v-80h-365z" />
    <glyph glyph-name="Abreve" unicode="&#x102;" 
d="M468 0h-138l-25 117h-118l-25 -117h-130l153 725h129zM285 230l-38 230l-41 -230h79zM453 892q0 -57 -55 -88t-147 -31q-93 0 -148 31t-55 88v68h85v-62q0 -15 10 -25.5t26.5 -17.5t37.5 -10t44 -3q22 0 42.5 3t37 10t26.5 17.5t10 25.5v62h86v-68z" />
    <glyph glyph-name="abreve" unicode="&#x103;" 
d="M338 191q-15 9 -38 16t-49 7q-44 0 -62.5 -19.5t-18.5 -48.5q0 -33 20.5 -47.5t55.5 -14.5q31 0 57 22.5t35 50.5v34zM453 0h-103v86q-17 -39 -50.5 -67.5t-88.5 -28.5q-44 0 -75 11.5t-50.5 32t-28.5 49t-9 63.5q0 81 40 119t120 38q54 0 84 -7.5t46 -21.5v54
q0 39 -22.5 60t-61.5 21q-61 0 -80 -55l-106 34q11 35 31 58.5t45 37.5t53.5 19.5t55.5 5.5q54 0 92 -12.5t62 -36t35 -56.5t11 -73v-331zM453 666q0 -57 -55 -88t-147 -31q-93 0 -148 31t-55 88v68h85v-62q0 -15 10 -25.5t26.5 -17.5t37.5 -10t44 -3q22 0 42.5 3t37 10
t26.5 17.5t10 25.5v62h86v-68z" />
    <glyph glyph-name="Aogonek" unicode="&#x104;" 
d="M468 -240h-178q-28 0 -48 8t-33 20.5t-19 29t-6 33.5q0 26 13 49.5t37 36.5l97 52l-26 128h-118l-25 -117h-130l153 725h129l154 -725l-151 -80q-13 -7 -13 -21q0 -8 6 -14.5t19 -6.5h139v-118zM285 230l-38 230l-41 -230h79z" />
    <glyph glyph-name="aogonek" unicode="&#x105;" 
d="M453 -240h-178q-28 0 -48 8t-33 20.5t-19 29t-6 33.5q0 26 13 50t36 36l132 69v80q-17 -39 -50.5 -67.5t-88.5 -28.5q-44 0 -75 11.5t-50.5 32t-28.5 49t-9 63.5q0 81 40 119t120 38q54 0 84 -7.5t46 -21.5v54q0 39 -22.5 60t-61.5 21q-61 0 -80 -55l-106 34
q11 35 31 58.5t45 37.5t53.5 19.5t55.5 5.5q54 0 92 -12.5t62 -36t35 -56.5t11 -73v-331l-151 -80q-13 -7 -13 -21q0 -8 6 -14.5t18 -6.5h140v-118zM338 191q-15 9 -38 16t-49 7q-44 0 -62.5 -19.5t-18.5 -48.5q0 -33 20.5 -47.5t55.5 -14.5q31 0 57 22.5t35 50.5v34z" />
    <glyph glyph-name="Cacute" unicode="&#x106;" 
d="M172 206q0 -50 21 -74t58 -24q28 0 49.5 17t24.5 57h125q-19 -192 -199 -192q-99 0 -150.5 52.5t-51.5 159.5v321q0 107 51.5 159.5t150.5 52.5q180 0 199 -192h-125q-3 39 -24.5 56.5t-49.5 17.5q-37 0 -58 -24t-21 -74v-313zM285 783h-104l102 177h136z" />
    <glyph glyph-name="cacute" unicode="&#x107;" 
d="M457 67q-30 -40 -71.5 -58.5t-98.5 -18.5t-103 19t-78.5 53t-50 82t-17.5 105t18.5 104.5t52.5 82t82 54t107 19.5q28 0 53 -6.5t44.5 -16t33 -20.5t19.5 -21l-66 -90q-14 17 -36 27.5t-58 10.5q-55 0 -92.5 -35t-37.5 -110q0 -70 36 -106.5t94 -36.5q26 0 55 13t46 39z
M315 557h-104l102 177h136z" />
    <glyph glyph-name="Cdotaccent" unicode="&#x10a;" 
d="M172 206q0 -50 21 -74t58 -24q28 0 49.5 17t24.5 57h125q-19 -192 -199 -192q-99 0 -150.5 52.5t-51.5 159.5v321q0 107 51.5 159.5t150.5 52.5q180 0 199 -192h-125q-3 39 -24.5 56.5t-49.5 17.5q-37 0 -58 -24t-21 -74v-313zM315 858q0 -32 -16.5 -55t-47.5 -23
q-32 0 -49 23t-17 55t17 56t49 24q29 0 46.5 -24.5t17.5 -55.5z" />
    <glyph glyph-name="cdotaccent" unicode="&#x10b;" 
d="M457 67q-30 -40 -71.5 -58.5t-98.5 -18.5t-103 19t-78.5 53t-50 82t-17.5 105t18.5 104.5t52.5 82t82 54t107 19.5q28 0 53 -6.5t44.5 -16t33 -20.5t19.5 -21l-66 -90q-14 17 -36 27.5t-58 10.5q-55 0 -92.5 -35t-37.5 -110q0 -70 36 -106.5t94 -36.5q26 0 55 13t46 39z
M345 632q0 -32 -16.5 -55t-47.5 -23q-32 0 -49 23t-17 55t17 56t49 24q29 0 46.5 -24.5t17.5 -55.5z" />
    <glyph glyph-name="Ccaron" unicode="&#x10c;" 
d="M172 206q0 -50 21 -74t58 -24q28 0 49.5 17t24.5 57h125q-19 -192 -199 -192q-99 0 -150.5 52.5t-51.5 159.5v321q0 107 51.5 159.5t150.5 52.5q180 0 199 -192h-125q-3 39 -24.5 56.5t-49.5 17.5q-37 0 -58 -24t-21 -74v-313zM332 790h-163l-110 170h105l88 -108l86 108
h104z" />
    <glyph glyph-name="ccaron" unicode="&#x10d;" 
d="M457 67q-30 -40 -71.5 -58.5t-98.5 -18.5t-103 19t-78.5 53t-50 82t-17.5 105t18.5 104.5t52.5 82t82 54t107 19.5q28 0 53 -6.5t44.5 -16t33 -20.5t19.5 -21l-66 -90q-14 17 -36 27.5t-58 10.5q-55 0 -92.5 -35t-37.5 -110q0 -70 36 -106.5t94 -36.5q26 0 55 13t46 39z
M362 564h-163l-110 170h105l88 -108l86 108h104z" />
    <glyph glyph-name="Dcaron" unicode="&#x10e;" 
d="M452 222q0 -218 -198 -218h-205v721h205q198 0 198 -222v-281zM332 495q0 52 -20.5 86t-57.5 34h-85v-496h85q78 0 78 110v266zM313 790h-163l-110 170h105l88 -108l86 108h104z" />
    <glyph glyph-name="dcaron" unicode="&#x10f;" 
d="M22.6445 247.347q0 62.0869 7.27832 110.655t23.0479 82.6152q15.7705 34.0479 41.2451 51.5732q25.4736 17.5244 61.8662 17.5244q32.3486 0 62.2715 -25.5361q29.9219 -25.5361 49.3311 -90.627v332.466h93.0029v-726.018h-89.7676v106.148
q-19.4092 -60.084 -50.5449 -88.123t-65.1016 -28.0391q-29.1133 0 -53.375 14.5195q-24.2617 14.5205 -41.6494 45.0635q-17.3867 30.543 -27.4961 79.6113q-10.1084 49.0693 -10.1084 118.166zM121.308 252.354q0 -76.1064 19.8135 -118.666t52.9707 -42.5596
q16.1738 0 29.5186 12.0166q13.3438 12.0166 23.0479 33.5469q9.70508 21.5303 15.3652 50.5713q5.66113 29.04 5.66113 64.0898q0 33.0459 -5.66113 62.0869q-5.66016 29.041 -15.3652 50.0703q-9.7041 21.0293 -23.0479 33.0459q-13.3447 12.0166 -29.5186 12.0166
q-34.7744 0 -53.7793 -40.0557t-19.0049 -116.163zM530 709l-57 -197l-85 21l38 202z" />
    <glyph glyph-name="Dcroat" unicode="&#x110;" 
d="M463 222q0 -218 -197 -218h-207v296h-34v117h34v308h207q197 0 197 -222v-281zM282 300h-102v-181h86q77 0 77 110v266q0 52 -20.5 86t-56.5 34h-86v-198h102v-117z" />
    <glyph glyph-name="dmacron" unicode="&#x111;" 
d="M451 610v-610h-111v106q-24 -60 -62.5 -88t-80.5 -28q-36 0 -66 14.5t-51.5 45t-34 79.5t-12.5 118q0 62 9 110.5t28.5 82.5t51 51.5t76.5 17.5q40 0 77 -25.5t61 -90.5v217h-201v79h201v36h115v-36h49v-79h-49zM155 252q0 -76 24.5 -118.5t65.5 -42.5q20 0 36.5 12
t28.5 33.5t19 50.5t7 64q0 33 -7 62t-19 50t-28.5 33t-36.5 12q-43 0 -66.5 -40t-23.5 -116z" />
    <glyph glyph-name="Emacron" unicode="&#x112;" 
d="M435 0h-368v725h368v-115h-239v-185h189v-117h-189v-186h239v-122zM68 795v80h365v-80h-365z" />
    <glyph glyph-name="emacron" unicode="&#x113;" 
d="M153 224q5 -66 32.5 -97t75.5 -31q57 0 80 54l111 -27q-26 -67 -76 -100t-120 -33q-50 0 -91.5 18.5t-71 52.5t-46 81t-16.5 104q0 62 16.5 111t46 82.5t70 51.5t89.5 18q101 0 156.5 -74t59.5 -211h-316zM353 275q-2 61 -29.5 94t-69.5 33q-46 0 -72 -33t-31 -94h202z
M68 569v80h365v-80h-365z" />
    <glyph glyph-name="Ebreve" unicode="&#x114;" 
d="M435 0h-368v725h368v-115h-239v-185h189v-117h-189v-186h239v-122zM453 892q0 -57 -55 -88t-147 -31q-93 0 -148 31t-55 88v68h85v-62q0 -15 10 -25.5t26.5 -17.5t37.5 -10t44 -3q22 0 42.5 3t37 10t26.5 17.5t10 25.5v62h86v-68z" />
    <glyph glyph-name="ebreve" unicode="&#x115;" 
d="M153 224q5 -66 32.5 -97t75.5 -31q57 0 80 54l111 -27q-26 -67 -76 -100t-120 -33q-50 0 -91.5 18.5t-71 52.5t-46 81t-16.5 104q0 62 16.5 111t46 82.5t70 51.5t89.5 18q101 0 156.5 -74t59.5 -211h-316zM353 275q-2 61 -29.5 94t-69.5 33q-46 0 -72 -33t-31 -94h202z
M453 666q0 -57 -55 -88t-147 -31q-93 0 -148 31t-55 88v68h85v-62q0 -15 10 -25.5t26.5 -17.5t37.5 -10t44 -3q22 0 42.5 3t37 10t26.5 17.5t10 25.5v62h86v-68z" />
    <glyph glyph-name="Edotaccent" unicode="&#x116;" 
d="M435 0h-368v725h368v-115h-239v-185h189v-117h-189v-186h239v-122zM315 858q0 -32 -16.5 -55t-47.5 -23q-32 0 -49 23t-17 55t17 56t49 24q29 0 46.5 -24.5t17.5 -55.5z" />
    <glyph glyph-name="edotaccent" unicode="&#x117;" 
d="M153 224q5 -66 32.5 -97t75.5 -31q57 0 80 54l111 -27q-26 -67 -76 -100t-120 -33q-50 0 -91.5 18.5t-71 52.5t-46 81t-16.5 104q0 62 16.5 111t46 82.5t70 51.5t89.5 18q101 0 156.5 -74t59.5 -211h-316zM353 275q-2 61 -29.5 94t-69.5 33q-46 0 -72 -33t-31 -94h202z
M315 632q0 -32 -16.5 -55t-47.5 -23q-32 0 -49 23t-17 55t17 56t49 24q29 0 46.5 -24.5t17.5 -55.5z" />
    <glyph glyph-name="Eogonek" unicode="&#x118;" 
d="M435 -240h-178q-28 0 -48 8t-33 20.5t-19 29t-6 33.5q0 26 13 49.5t36 36.5l119 63h-252v725h368v-115h-239v-185h189v-117h-189v-186h239v-122l-151 -80q-13 -7 -13 -21q0 -8 6 -14.5t18 -6.5h140v-118z" />
    <glyph glyph-name="eogonek" unicode="&#x119;" 
d="M348 -240h-178q-28 0 -48 8t-33 20.5t-19 29t-6 33.5q0 26 13 49.5t36 36.5l98 57q-41 7 -74 28.5t-56.5 54.5t-36.5 75.5t-13 93.5q0 62 16.5 111t46 82.5t70 51.5t89.5 18q101 0 156.5 -74t59.5 -211h-316q5 -66 32.5 -97t75.5 -31q57 0 80 54l111 -27
q-14 -33 -32.5 -59t-44.5 -41l-178 -103q-13 -7 -13 -21q0 -8 6 -14.5t18 -6.5h140v-118zM353 275q-2 61 -29.5 94t-69.5 33q-46 0 -72 -33t-31 -94h202z" />
    <glyph glyph-name="Ecaron" unicode="&#x11a;" 
d="M435 0h-368v725h368v-115h-239v-185h189v-117h-189v-186h239v-122zM332 790h-163l-110 170h105l88 -108l86 108h104z" />
    <glyph glyph-name="ecaron" unicode="&#x11b;" 
d="M153 224q5 -66 32.5 -97t75.5 -31q57 0 80 54l111 -27q-26 -67 -76 -100t-120 -33q-50 0 -91.5 18.5t-71 52.5t-46 81t-16.5 104q0 62 16.5 111t46 82.5t70 51.5t89.5 18q101 0 156.5 -74t59.5 -211h-316zM353 275q-2 61 -29.5 94t-69.5 33q-46 0 -72 -33t-31 -94h202z
M332 564h-163l-110 170h105l88 -108l86 108h104z" />
    <glyph glyph-name="Gbreve" unicode="&#x11e;" 
d="M442 0h-95v64q-8 -28 -38.5 -51t-94.5 -23q-33 0 -63 13.5t-52.5 38.5t-35.5 60t-13 78v344q0 107 53 159t149 52q85 0 138.5 -46.5t59.5 -145.5h-125q0 38 -21.5 56t-51.5 18q-36 0 -57.5 -26.5t-21.5 -71.5v-321q0 -48 21.5 -69t57.5 -21q35 0 55 21t20 69v108h-59v104
h174v-410zM453 892q0 -57 -55 -88t-147 -31q-93 0 -148 31t-55 88v68h85v-62q0 -15 10 -25.5t26.5 -17.5t37.5 -10t44 -3q22 0 42.5 3t37 10t26.5 17.5t10 25.5v62h86v-68z" />
    <glyph glyph-name="gbreve" unicode="&#x11f;" 
d="M451 9q0 -101 -56 -159.5t-175 -58.5q-122 0 -187 77l49 80q61 -64 138 -64q54 0 87 29.5t33 100.5v98q-24 -65 -56.5 -93.5t-76.5 -28.5q-37 0 -68.5 18.5t-55 52t-36.5 81t-13 106.5q0 56 12 104t35 83t55 54.5t73 19.5q53 0 82.5 -26.5t50.5 -84.5v100h109v-489z
M338 248q0 34 -7 63t-19.5 50.5t-29.5 33.5t-36 12q-20 0 -37 -12t-29 -33.5t-18.5 -50.5t-6.5 -62t6.5 -61t18.5 -49t29 -32.5t37 -11.5t37 12t29 32.5t19 48.5t7 60zM453 666q0 -57 -55 -88t-147 -31q-93 0 -148 31t-55 88v68h85v-62q0 -15 10 -25.5t26.5 -17.5t37.5 -10
t44 -3q22 0 42.5 3t37 10t26.5 17.5t10 25.5v62h86v-68z" />
    <glyph glyph-name="Gdotaccent" unicode="&#x120;" 
d="M442 0h-95v64q-8 -28 -38.5 -51t-94.5 -23q-33 0 -63 13.5t-52.5 38.5t-35.5 60t-13 78v344q0 107 53 159t149 52q85 0 138.5 -46.5t59.5 -145.5h-125q0 38 -21.5 56t-51.5 18q-36 0 -57.5 -26.5t-21.5 -71.5v-321q0 -48 21.5 -69t57.5 -21q35 0 55 21t20 69v108h-59v104
h174v-410zM315 858q0 -32 -16.5 -55t-47.5 -23q-32 0 -49 23t-17 55t17 56t49 24q29 0 46.5 -24.5t17.5 -55.5z" />
    <glyph glyph-name="gdotaccent" unicode="&#x121;" 
d="M451 9q0 -101 -56 -159.5t-175 -58.5q-122 0 -187 77l49 80q61 -64 138 -64q54 0 87 29.5t33 100.5v98q-24 -65 -56.5 -93.5t-76.5 -28.5q-37 0 -68.5 18.5t-55 52t-36.5 81t-13 106.5q0 56 12 104t35 83t55 54.5t73 19.5q53 0 82.5 -26.5t50.5 -84.5v100h109v-489z
M338 248q0 34 -7 63t-19.5 50.5t-29.5 33.5t-36 12q-20 0 -37 -12t-29 -33.5t-18.5 -50.5t-6.5 -62t6.5 -61t18.5 -49t29 -32.5t37 -11.5t37 12t29 32.5t19 48.5t7 60zM315 632q0 -32 -16.5 -55t-47.5 -23q-32 0 -49 23t-17 55t17 56t49 24q29 0 46.5 -24.5t17.5 -55.5z" />
    <glyph glyph-name="Gcommaaccent" unicode="&#x122;" 
d="M442 0h-95v64q-8 -28 -38.5 -51t-94.5 -23q-33 0 -63 13.5t-52.5 38.5t-35.5 60t-13 78v344q0 107 53 159t149 52q85 0 138.5 -46.5t59.5 -145.5h-125q0 38 -21.5 56t-51.5 18q-36 0 -57.5 -26.5t-21.5 -71.5v-321q0 -48 21.5 -69t57.5 -21q35 0 55 21t20 69v108h-59v104
h174v-410zM292 -43l-57 -197l-85 21l38 202z" />
    <glyph glyph-name="gcommaaccent" unicode="&#x123;" 
d="M451 9q0 -101 -56 -159.5t-175 -58.5q-122 0 -187 77l49 80q61 -64 138 -64q54 0 87 29.5t33 100.5v98q-24 -65 -56.5 -93.5t-76.5 -28.5q-37 0 -68.5 18.5t-55 52t-36.5 81t-13 106.5q0 56 12 104t35 83t55 54.5t73 19.5q53 0 82.5 -26.5t50.5 -84.5v100h109v-489z
M338 248q0 34 -7 63t-19.5 50.5t-29.5 33.5t-36 12q-20 0 -37 -12t-29 -33.5t-18.5 -50.5t-6.5 -62t6.5 -61t18.5 -49t29 -32.5t37 -11.5t37 12t29 32.5t19 48.5t7 60zM341 722l-57 -197l-85 21l38 202z" />
    <glyph glyph-name="Hbar" unicode="&#x126;" 
d="M449 0h-130v306h-140v-306h-128v725h128v-102h140v102h130v-725zM319 430v113h-140v-113h140z" />
    <glyph glyph-name="hbar" unicode="&#x127;" 
d="M174 610v-215q26 62 66.5 88t87.5 26q63 0 94.5 -41t31.5 -115v-353h-116v302q0 48 -20 73.5t-61 25.5q-42 0 -62.5 -25t-20.5 -73v-303h-116v610h-58v79h58v36h116v-36h191v-79h-191z" />
    <glyph glyph-name="Imacron" unicode="&#x12a;" 
d="M420 0h-339v116h109v494h-109v115h339v-115h-107v-494h107v-116zM68 795v80h365v-80h-365z" />
    <glyph glyph-name="imacron" unicode="&#x12b;" 
d="M409 0h-318v116h108v266h-108v116h223v-382h95v-116zM68 569v80h365v-80h-365z" />
    <glyph glyph-name="Ibreve" unicode="&#x12c;" 
d="M420 0h-339v116h109v494h-109v115h339v-115h-107v-494h107v-116zM453 892q0 -57 -55 -88t-147 -31q-93 0 -148 31t-55 88v68h85v-62q0 -15 10 -25.5t26.5 -17.5t37.5 -10t44 -3q22 0 42.5 3t37 10t26.5 17.5t10 25.5v62h86v-68z" />
    <glyph glyph-name="ibreve" unicode="&#x12d;" 
d="M409 0h-318v116h108v266h-108v116h223v-382h95v-116zM453 666q0 -57 -55 -88t-147 -31q-93 0 -148 31t-55 88v68h85v-62q0 -15 10 -25.5t26.5 -17.5t37.5 -10t44 -3q22 0 42.5 3t37 10t26.5 17.5t10 25.5v62h86v-68z" />
    <glyph glyph-name="Iogonek" unicode="&#x12e;" 
d="M392 -240h-178q-27 0 -47 8t-33 20.5t-19.5 29t-6.5 33.5q0 26 13 49.5t37 36.5l119 63h-196v116h109v494h-109v115h339v-115h-107v-494h107v-116h-28l-150 -80q-14 -8 -14 -21q0 -8 6.5 -14.5t18.5 -6.5h139v-118z" />
    <glyph glyph-name="iogonek" unicode="&#x12f;" 
d="M392 -240h-178q-27 0 -47 8t-33 20.5t-19.5 29t-6.5 33.5q0 26 13 49.5t37 36.5l119 63h-186v116h108v266h-108v116h223v-382h95v-116h-17l-150 -80q-14 -8 -14 -21q0 -8 6.5 -14.5t18.5 -6.5h139v-118zM321 655q0 -31 -16.5 -54.5t-47.5 -23.5q-32 0 -49 23.5t-17 54.5
q0 33 17 56.5t49 23.5q29 0 46.5 -24t17.5 -56z" />
    <glyph glyph-name="Idotaccent" unicode="&#x130;" 
d="M420 0h-339v116h109v494h-109v115h339v-115h-107v-494h107v-116zM315 858q0 -32 -16.5 -55t-47.5 -23q-32 0 -49 23t-17 55t17 56t49 24q29 0 46.5 -24.5t17.5 -55.5z" />
    <glyph glyph-name="dotlessi" unicode="&#x131;" 
d="M409 0h-318v116h108v266h-108v116h223v-382h95v-116z" />
    <glyph glyph-name="IJ" unicode="&#x132;" 
d="M27 0v728h124v-728h-124zM473 251q0 -118 -53 -184.5t-160 -66.5h-78v122h61q18 0 36 6t32.5 20t23 38t8.5 59v365h-69v115h199v-474z" />
    <glyph glyph-name="ij" unicode="&#x133;" 
d="M81 0v382h-58v116h173v-498h-115zM203 655q0 -31 -16.5 -54.5t-47.5 -23.5q-32 0 -49 23.5t-17 54.5q0 33 17 56.5t49 23.5q29 0 46.5 -24t17.5 -56zM470 -8q-2 -191 -149 -191h-149v121h135q47 0 47 70v390h-92v116h208v-506zM477 655q0 -31 -16.5 -54.5t-48.5 -23.5
q-31 0 -48 23.5t-17 54.5q0 33 17 56.5t48 23.5q30 0 47.5 -24t17.5 -56z" />
    <glyph glyph-name="Kcommaaccent" unicode="&#x136;" 
d="M471 0h-137l-144 340v-340h-130v725h130v-325l142 325h127l-159 -328zM312 -43l-57 -197l-85 21l38 202z" />
    <glyph glyph-name="kcommaaccent" unicode="&#x137;" 
d="M456 0h-145l-140 240v-240h-116v725h116v-437l138 210h126l-149 -219zM302 -43l-57 -197l-85 21l38 202z" />
    <glyph glyph-name="Lacute" unicode="&#x139;" 
d="M447 0h-380v725h128v-603h252v-122zM234 783h-104l102 177h136z" />
    <glyph glyph-name="lacute" unicode="&#x13a;" 
d="M330 0h-116v610h-106v115h222v-725zM287 783h-104l102 177h136z" />
    <glyph glyph-name="Lcommaaccent" unicode="&#x13b;" 
d="M447 0h-380v725h128v-603h252v-122zM321 -43l-57 -197l-85 21l38 202z" />
    <glyph glyph-name="lcommaaccent" unicode="&#x13c;" 
d="M330 0h-116v610h-106v115h222v-725zM321 -43l-57 -197l-85 21l38 202z" />
    <glyph glyph-name="Lcaron" unicode="&#x13d;" 
d="M447 0h-380v725h128v-603h252v-122zM399 709l-57 -197l-85 21l38 202z" />
    <glyph glyph-name="lcaron" unicode="&#x13e;" 
d="M270 0h-116v610h-106v115h222v-725zM470 709l-57 -197l-85 21l38 202z" />
    <glyph glyph-name="Ldot" unicode="&#x13f;" 
d="M447 0h-380v725h128v-603h252v-122zM365 354q0 -32 -16.5 -55t-47.5 -23q-32 0 -49 23t-17 55t17 56t49 24q29 0 46.5 -24.5t17.5 -55.5z" />
    <glyph glyph-name="ldot" unicode="&#x140;" 
d="M240 0h-116v610h-106v115h222v-725zM435 367q0 -32 -16.5 -55t-47.5 -23q-32 0 -49 23t-17 55t17 56t49 24q29 0 46.5 -24.5t17.5 -55.5z" />
    <glyph glyph-name="Lslash" unicode="&#x141;" 
d="M340 520l-145 -97v-301h252v-122h-380v725h128v-186l145 97v-116z" />
    <glyph glyph-name="lslash" unicode="&#x142;" 
d="M441 392l-111 -74v-318h-116v242l-118 -78v116l118 78v252h-106v115h222v-290l111 74v-117z" />
    <glyph glyph-name="Nacute" unicode="&#x143;" 
d="M455 0h-127l-165 424v-424h-118v725h148l147 -424v424h115v-725zM285 783h-104l102 177h136z" />
    <glyph glyph-name="nacute" unicode="&#x144;" 
d="M454 0h-116v302q0 48 -20 73.5t-61 25.5q-42 0 -62.5 -25t-20.5 -73v-303h-116v498h116v-103q26 62 66.5 88t87.5 26q63 0 94.5 -41t31.5 -115v-353zM285 557h-104l102 177h136z" />
    <glyph glyph-name="Ncommaaccent" unicode="&#x145;" 
d="M455 0h-127l-165 424v-424h-118v725h148l147 -424v424h115v-725zM302 -43l-57 -197l-85 21l38 202z" />
    <glyph glyph-name="ncommaaccent" unicode="&#x146;" 
d="M454 0h-116v302q0 48 -20 73.5t-61 25.5q-42 0 -62.5 -25t-20.5 -73v-303h-116v498h116v-103q26 62 66.5 88t87.5 26q63 0 94.5 -41t31.5 -115v-353zM312 -43l-57 -197l-85 21l38 202z" />
    <glyph glyph-name="Ncaron" unicode="&#x147;" 
d="M455 0h-127l-165 424v-424h-118v725h148l147 -424v424h115v-725zM332 790h-163l-110 170h105l88 -108l86 108h104z" />
    <glyph glyph-name="ncaron" unicode="&#x148;" 
d="M454 0h-116v302q0 48 -20 73.5t-61 25.5q-42 0 -62.5 -25t-20.5 -73v-303h-116v498h116v-103q26 62 66.5 88t87.5 26q63 0 94.5 -41t31.5 -115v-353zM332 564h-163l-110 170h105l88 -108l86 108h104z" />
    <glyph glyph-name="Eng" unicode="&#x14a;" 
d="M455 -8q-2 -191 -149 -191h-107v121h93q48 0 48 70v7l-177 425v-424h-118v725h148l147 -424v424h115v-733z" />
    <glyph glyph-name="eng" unicode="&#x14b;" 
d="M454 -8q-2 -191 -149 -191h-99v121h85q47 0 47 70v310q0 48 -20 73.5t-61 25.5q-42 0 -62.5 -25t-20.5 -73v-303h-116v498h116v-103q26 62 66.5 88t87.5 26q63 0 94.5 -41t31.5 -115v-361z" />
    <glyph glyph-name="Omacron" unicode="&#x14c;" 
d="M459 221q0 -110 -54 -170.5t-154 -60.5q-104 0 -157 63t-53 168v282q0 106 53 169t157 63q100 0 154 -60.5t54 -171.5v-282zM164 202q0 -53 25 -77.5t62 -24.5q36 0 61 25.5t25 76.5v321q0 51 -25 76.5t-61 25.5q-37 0 -62 -25t-25 -77v-321zM68 795v80h365v-80h-365z
" />
    <glyph glyph-name="omacron" unicode="&#x14d;" 
d="M464 249q0 -55 -15.5 -102.5t-43.5 -82t-67.5 -54.5t-86.5 -20q-48 0 -88 19.5t-68 54t-43.5 82t-15.5 103.5q0 55 15 102.5t43 82.5t68 55t89 20q48 0 87.5 -20t67 -55.5t43 -83t15.5 -101.5zM343 249q0 63 -25.5 103.5t-66.5 40.5q-21 0 -38.5 -11t-29.5 -30.5
t-18.5 -46t-6.5 -57.5q0 -30 7 -56.5t19.5 -45.5t29.5 -30t37 -11q42 0 67 40t25 104zM68 569v80h365v-80h-365z" />
    <glyph glyph-name="Obreve" unicode="&#x14e;" 
d="M459 221q0 -110 -54 -170.5t-154 -60.5q-104 0 -157 63t-53 168v282q0 106 53 169t157 63q100 0 154 -60.5t54 -171.5v-282zM164 202q0 -53 25 -77.5t62 -24.5q36 0 61 25.5t25 76.5v321q0 51 -25 76.5t-61 25.5q-37 0 -62 -25t-25 -77v-321zM453 892q0 -57 -55 -88
t-147 -31q-93 0 -148 31t-55 88v68h85v-62q0 -15 10 -25.5t26.5 -17.5t37.5 -10t44 -3q22 0 42.5 3t37 10t26.5 17.5t10 25.5v62h86v-68z" />
    <glyph glyph-name="obreve" unicode="&#x14f;" 
d="M464 249q0 -55 -15.5 -102.5t-43.5 -82t-67.5 -54.5t-86.5 -20q-48 0 -88 19.5t-68 54t-43.5 82t-15.5 103.5q0 55 15 102.5t43 82.5t68 55t89 20q48 0 87.5 -20t67 -55.5t43 -83t15.5 -101.5zM343 249q0 63 -25.5 103.5t-66.5 40.5q-21 0 -38.5 -11t-29.5 -30.5
t-18.5 -46t-6.5 -57.5q0 -30 7 -56.5t19.5 -45.5t29.5 -30t37 -11q42 0 67 40t25 104zM453 666q0 -57 -55 -88t-147 -31q-93 0 -148 31t-55 88v68h85v-62q0 -15 10 -25.5t26.5 -17.5t37.5 -10t44 -3q22 0 42.5 3t37 10t26.5 17.5t10 25.5v62h86v-68z" />
    <glyph glyph-name="Ohungarumlaut" unicode="&#x150;" 
d="M459 221q0 -110 -54 -170.5t-154 -60.5q-104 0 -157 63t-53 168v282q0 106 53 169t157 63q100 0 154 -60.5t54 -171.5v-282zM164 202q0 -53 25 -77.5t62 -24.5q36 0 61 25.5t25 76.5v321q0 51 -25 76.5t-61 25.5q-37 0 -62 -25t-25 -77v-321zM391 783h-104l102 177h137z
M179 783h-104l102 177h136z" />
    <glyph glyph-name="ohungarumlaut" unicode="&#x151;" 
d="M464 249q0 -55 -15.5 -102.5t-43.5 -82t-67.5 -54.5t-86.5 -20q-48 0 -88 19.5t-68 54t-43.5 82t-15.5 103.5q0 55 15 102.5t43 82.5t68 55t89 20q48 0 87.5 -20t67 -55.5t43 -83t15.5 -101.5zM343 249q0 63 -25.5 103.5t-66.5 40.5q-21 0 -38.5 -11t-29.5 -30.5
t-18.5 -46t-6.5 -57.5q0 -30 7 -56.5t19.5 -45.5t29.5 -30t37 -11q42 0 67 40t25 104zM391 557h-104l102 177h137zM179 557h-104l102 177h136z" />
    <glyph glyph-name="OE" unicode="&#x152;" 
d="M194 0q-90 0 -131.5 45t-41.5 153v341q0 97 40 141.5t133 44.5h286v-115h-132v-185h132v-117h-132v-186h132v-122h-286zM243 548q0 40 -11.5 53.5t-37.5 13.5t-38 -14.5t-12 -53.5v-354q0 -42 12 -61t38 -19t37.5 19t11.5 61v355z" />
    <glyph glyph-name="oe" unicode="&#x153;" 
d="M342 -10q-35 0 -61.5 19t-37.5 55q-13 -35 -39.5 -54.5t-60.5 -19.5q-31 0 -55 14.5t-40.5 45.5t-25.5 80t-9 119q0 132 37.5 196t103.5 64q32 0 52.5 -17t36.5 -49q20 32 46 49t62 17q32 0 57.5 -16t43 -50.5t27 -88.5t9.5 -130h-199q0 -72 15 -103.5t38 -31.5
q17 0 27.5 12t18.5 43l86 -27q-8 -23 -18.5 -45.5t-26 -40.5t-36.5 -29.5t-51 -11.5zM207 249q0 165 -53 165q-52 0 -52 -166t52 -166q53 0 53 167zM397 275q-2 69 -14.5 97.5t-35.5 28.5q-24 0 -40 -28.5t-19 -97.5h109z" />
    <glyph glyph-name="Racute" unicode="&#x154;" 
d="M477 0h-162l-138 287v-287h-130v725h201q100 0 157 -56.5t57 -159.5q0 -90 -39.5 -137.5t-104.5 -65.5zM330 490q0 69 -27 94t-81 25h-45v-240h60q44 0 68.5 34t24.5 87zM264 783h-104l102 177h136z" />
    <glyph glyph-name="racute" unicode="&#x155;" 
d="M318 509q57 0 88 -32.5t35 -83.5l-115 -58q-13 58 -68 58q-38 0 -59.5 -26t-21.5 -66v-301h-117v498h110v-109q28 66 64 93t84 27zM285 557h-104l102 177h136z" />
    <glyph glyph-name="Rcommaaccent" unicode="&#x156;" 
d="M477 0h-162l-138 287v-287h-130v725h201q100 0 157 -56.5t57 -159.5q0 -90 -39.5 -137.5t-104.5 -65.5zM330 490q0 69 -27 94t-81 25h-45v-240h60q44 0 68.5 34t24.5 87zM312 -43l-57 -197l-85 21l38 202z" />
    <glyph glyph-name="rcommaaccent" unicode="&#x157;" 
d="M318 509q57 0 88 -32.5t35 -83.5l-115 -58q-13 58 -68 58q-38 0 -59.5 -26t-21.5 -66v-301h-117v498h110v-109q28 66 64 93t84 27zM191 -43l-57 -197l-85 21l38 202z" />
    <glyph glyph-name="Rcaron" unicode="&#x158;" 
d="M477 0h-162l-138 287v-287h-130v725h201q100 0 157 -56.5t57 -159.5q0 -90 -39.5 -137.5t-104.5 -65.5zM330 490q0 69 -27 94t-81 25h-45v-240h60q44 0 68.5 34t24.5 87zM313 790h-163l-110 170h105l88 -108l86 108h104z" />
    <glyph glyph-name="rcaron" unicode="&#x159;" 
d="M318 509q57 0 88 -32.5t35 -83.5l-115 -58q-13 58 -68 58q-38 0 -59.5 -26t-21.5 -66v-301h-117v498h110v-109q28 66 64 93t84 27zM332 564h-163l-110 170h105l88 -108l86 108h104z" />
    <glyph glyph-name="Sacute" unicode="&#x15a;" 
d="M465 211q0 -101 -53 -161t-152 -60q-101 0 -151.5 49.5t-58.5 149.5h119q5 -39 27.5 -57.5t70.5 -18.5q34 0 55 21t21 56q0 30 -16 52t-59 43q-37 18 -75 39t-74 51q-33 29 -48.5 64.5t-15.5 91.5q0 95 54 149.5t148 54.5q100 0 146.5 -50t48.5 -141h-117q2 38 -21 59
t-60 21q-42 0 -62.5 -18.5t-20.5 -53.5q0 -28 12 -47t44 -38q22 -14 46 -24.5t47 -22t45.5 -25.5t41.5 -33q32 -31 45 -67t13 -84zM295 783h-104l102 177h136z" />
    <glyph glyph-name="sacute" unicode="&#x15b;" 
d="M438 151q0 -37 -14 -66.5t-38.5 -50.5t-59 -32.5t-75.5 -11.5q-85 0 -133.5 34.5t-50.5 106.5h122q0 -29 17 -43t48 -14q37 0 50.5 16t13.5 33q0 23 -15 38.5t-55 32.5q-38 15 -70 28.5t-59 35.5q-23 18 -36.5 43.5t-13.5 57.5q0 39 14 67.5t38 47t57 27t71 8.5
q70 0 118.5 -33.5t56.5 -97.5h-118q-2 26 -16.5 39.5t-47.5 13.5q-32 0 -45.5 -14t-13.5 -32q0 -25 15.5 -39t57.5 -32q51 -21 81.5 -34t50.5 -27q23 -15 36.5 -40t13.5 -62zM289 557h-104l102 177h136z" />
    <glyph glyph-name="Scedilla" unicode="&#x15e;" 
d="M465 211q0 -101 -53 -161t-152 -60q-101 0 -151.5 49.5t-58.5 149.5h119q5 -39 27.5 -57.5t70.5 -18.5q34 0 55 21t21 56q0 30 -16 52t-59 43q-37 18 -75 39t-74 51q-33 29 -48.5 64.5t-15.5 91.5q0 95 54 149.5t148 54.5q100 0 146.5 -50t48.5 -141h-117q2 38 -21 59
t-60 21q-42 0 -62.5 -18.5t-20.5 -53.5q0 -28 12 -47t44 -38q22 -14 46 -24.5t47 -22t45.5 -25.5t41.5 -33q32 -31 45 -67t13 -84zM302 -43l-57 -197l-85 21l38 202z" />
    <glyph glyph-name="scedilla" unicode="&#x15f;" 
d="M438 151q0 -37 -14 -66.5t-38.5 -50.5t-59 -32.5t-75.5 -11.5q-85 0 -133.5 34.5t-50.5 106.5h122q0 -29 17 -43t48 -14q37 0 50.5 16t13.5 33q0 23 -15 38.5t-55 32.5q-38 15 -70 28.5t-59 35.5q-23 18 -36.5 43.5t-13.5 57.5q0 39 14 67.5t38 47t57 27t71 8.5
q70 0 118.5 -33.5t56.5 -97.5h-118q-2 26 -16.5 39.5t-47.5 13.5q-32 0 -45.5 -14t-13.5 -32q0 -25 15.5 -39t57.5 -32q51 -21 81.5 -34t50.5 -27q23 -15 36.5 -40t13.5 -62zM302 -43l-57 -197l-85 21l38 202z" />
    <glyph glyph-name="Scaron" unicode="&#x160;" 
d="M465 211q0 -101 -53 -161t-152 -60q-101 0 -151.5 49.5t-58.5 149.5h119q5 -39 27.5 -57.5t70.5 -18.5q34 0 55 21t21 56q0 30 -16 52t-59 43q-37 18 -75 39t-74 51q-33 29 -48.5 64.5t-15.5 91.5q0 95 54 149.5t148 54.5q100 0 146.5 -50t48.5 -141h-117q2 38 -21 59
t-60 21q-42 0 -62.5 -18.5t-20.5 -53.5q0 -28 12 -47t44 -38q22 -14 46 -24.5t47 -22t45.5 -25.5t41.5 -33q32 -31 45 -67t13 -84zM342 790h-163l-110 170h105l88 -108l86 108h104z" />
    <glyph glyph-name="scaron" unicode="&#x161;" 
d="M438 151q0 -37 -14 -66.5t-38.5 -50.5t-59 -32.5t-75.5 -11.5q-85 0 -133.5 34.5t-50.5 106.5h122q0 -29 17 -43t48 -14q37 0 50.5 16t13.5 33q0 23 -15 38.5t-55 32.5q-38 15 -70 28.5t-59 35.5q-23 18 -36.5 43.5t-13.5 57.5q0 39 14 67.5t38 47t57 27t71 8.5
q70 0 118.5 -33.5t56.5 -97.5h-118q-2 26 -16.5 39.5t-47.5 13.5q-32 0 -45.5 -14t-13.5 -32q0 -25 15.5 -39t57.5 -32q51 -21 81.5 -34t50.5 -27q23 -15 36.5 -40t13.5 -62zM336 564h-163l-110 170h105l88 -108l86 108h104z" />
    <glyph glyph-name="Tcedilla" unicode="&#x162;" 
d="M473 603h-158v-603h-130v603h-158v122h446v-122zM304 -43l-57 -197l-85 21l38 202z" />
    <glyph glyph-name="tcedilla" unicode="&#x163;" 
d="M432 0h-145q-69 0 -98.5 33t-29.5 101v257h-108v107h108v137h115v-137h115v-107h-115v-228q0 -22 8.5 -34t31.5 -12h118v-117zM292 -43l-57 -197l-85 21l38 202z" />
    <glyph glyph-name="Tcaron" unicode="&#x164;" 
d="M473 603h-158v-603h-130v603h-158v122h446v-122zM332 790h-163l-110 170h105l88 -108l86 108h104z" />
    <glyph glyph-name="tcaron" unicode="&#x165;" 
d="M400 0h-145q-69 0 -98.5 33t-29.5 101v257h-108v107h108v137h115v-137h115v-107h-115v-228q0 -22 8.5 -34t31.5 -12h118v-117zM497 709l-57 -197l-85 21l38 202z" />
    <glyph glyph-name="Tbar" unicode="&#x166;" 
d="M404 392h-89v-392h-130v392h-90v106h90v105h-158v122h446v-122h-158v-105h89v-106z" />
    <glyph glyph-name="tbar" unicode="&#x167;" 
d="M376 216h-102v-53q0 -22 8.5 -34t31.5 -12h118v-117h-145q-69 0 -98.5 33t-29.5 101v82h-102v106h102v69h-108v107h108v137h115v-137h115v-107h-115v-69h102v-106z" />
    <glyph glyph-name="Utilde" unicode="&#x168;" 
d="M462 206q0 -112 -56.5 -164t-154.5 -52q-101 0 -157 53t-56 163v519h124v-512q0 -54 26 -82t63 -28q36 0 62.5 28t26.5 82v512h122v-519zM22 861q22 29 50.5 42.5t60.5 13.5q18 0 50 -9.5t67.5 -20.5t68 -20.5t50.5 -9.5q29 0 52.5 11t56.5 46v-81q-21 -29 -50 -43
t-61 -14q-18 0 -50 9.5t-67.5 21t-68 21t-50.5 9.5q-14 0 -26.5 -2.5t-25.5 -9t-26.5 -18t-30.5 -28.5v82z" />
    <glyph glyph-name="utilde" unicode="&#x169;" 
d="M453 184q0 -92 -55 -143t-147 -51q-93 0 -148 51t-55 143v314h116v-305q0 -25 7.5 -42t19.5 -28t27.5 -16t32.5 -5q16 0 31.5 5t27.5 16t19.5 28t7.5 42v305h116v-314zM22 635q22 29 50.5 42.5t60.5 13.5q18 0 50 -9.5t67.5 -20.5t68 -20.5t50.5 -9.5q29 0 52.5 11
t56.5 46v-81q-21 -29 -50 -43t-61 -14q-18 0 -50 9.5t-67.5 21t-68 21t-50.5 9.5q-14 0 -26.5 -2.5t-25.5 -9t-26.5 -18t-30.5 -28.5v82z" />
    <glyph glyph-name="Umacron" unicode="&#x16a;" 
d="M462 206q0 -112 -56.5 -164t-154.5 -52q-101 0 -157 53t-56 163v519h124v-512q0 -54 26 -82t63 -28q36 0 62.5 28t26.5 82v512h122v-519zM68 795v80h365v-80h-365z" />
    <glyph glyph-name="umacron" unicode="&#x16b;" 
d="M453 184q0 -92 -55 -143t-147 -51q-93 0 -148 51t-55 143v314h116v-305q0 -25 7.5 -42t19.5 -28t27.5 -16t32.5 -5q16 0 31.5 5t27.5 16t19.5 28t7.5 42v305h116v-314zM68 569v80h365v-80h-365z" />
    <glyph glyph-name="Ubreve" unicode="&#x16c;" 
d="M462 206q0 -112 -56.5 -164t-154.5 -52q-101 0 -157 53t-56 163v519h124v-512q0 -54 26 -82t63 -28q36 0 62.5 28t26.5 82v512h122v-519zM453 892q0 -57 -55 -88t-147 -31q-93 0 -148 31t-55 88v68h85v-62q0 -15 10 -25.5t26.5 -17.5t37.5 -10t44 -3q22 0 42.5 3t37 10
t26.5 17.5t10 25.5v62h86v-68z" />
    <glyph glyph-name="ubreve" unicode="&#x16d;" 
d="M453 184q0 -92 -55 -143t-147 -51q-93 0 -148 51t-55 143v314h116v-305q0 -25 7.5 -42t19.5 -28t27.5 -16t32.5 -5q16 0 31.5 5t27.5 16t19.5 28t7.5 42v305h116v-314zM453 666q0 -57 -55 -88t-147 -31q-93 0 -148 31t-55 88v68h85v-62q0 -15 10 -25.5t26.5 -17.5
t37.5 -10t44 -3q22 0 42.5 3t37 10t26.5 17.5t10 25.5v62h86v-68z" />
    <glyph glyph-name="Uring" unicode="&#x16e;" 
d="M462 206q0 -112 -56.5 -164t-154.5 -52q-101 0 -157 53t-56 163v519h124v-512q0 -54 26 -82t63 -28q36 0 62.5 28t26.5 82v512h122v-519zM250 960q29 0 54.5 -7.5t45 -22t30.5 -36.5t11 -51t-11 -51t-30.5 -36.5t-45 -21.5t-54.5 -7t-54.5 7t-45 21.5t-31 36.5t-11.5 51
t11.5 51t31 36.5t45 22t54.5 7.5zM250 900q-31 0 -48 -13.5t-17 -43.5q0 -31 17 -43t48 -12q30 0 47.5 12t17.5 43q0 30 -17.5 43.5t-47.5 13.5z" />
    <glyph glyph-name="uring" unicode="&#x16f;" 
d="M453 184q0 -92 -55 -143t-147 -51q-93 0 -148 51t-55 143v314h116v-305q0 -25 7.5 -42t19.5 -28t27.5 -16t32.5 -5q16 0 31.5 5t27.5 16t19.5 28t7.5 42v305h116v-314zM250 785q29 0 54.5 -7.5t45 -22t30.5 -36.5t11 -51t-11 -51t-30.5 -36.5t-45 -21.5t-54.5 -7t-54.5 7
t-45 21.5t-31 36.5t-11.5 51t11.5 51t31 36.5t45 22t54.5 7.5zM250 725q-31 0 -48 -13.5t-17 -43.5q0 -31 17 -43t48 -12q30 0 47.5 12t17.5 43q0 30 -17.5 43.5t-47.5 13.5z" />
    <glyph glyph-name="Uhungarumlaut" unicode="&#x170;" 
d="M462 206q0 -112 -56.5 -164t-154.5 -52q-101 0 -157 53t-56 163v519h124v-512q0 -54 26 -82t63 -28q36 0 62.5 28t26.5 82v512h122v-519zM391 783h-104l102 177h137zM179 783h-104l102 177h136z" />
    <glyph glyph-name="uhungarumlaut" unicode="&#x171;" 
d="M453 184q0 -92 -55 -143t-147 -51q-93 0 -148 51t-55 143v314h116v-305q0 -25 7.5 -42t19.5 -28t27.5 -16t32.5 -5q16 0 31.5 5t27.5 16t19.5 28t7.5 42v305h116v-314zM391 557h-104l102 177h137zM179 557h-104l102 177h136z" />
    <glyph glyph-name="Uogonek" unicode="&#x172;" 
d="M372 -240h-178q-28 0 -48 8t-33 20.5t-19 29t-6 33.5q0 26 13.5 48.5t35.5 37.5l81 55q-86 8 -133 60.5t-47 153.5v519h124v-512q0 -54 26 -82t63 -28q36 0 62.5 28t26.5 82v512h122v-519q0 -69 -21 -113.5t-60 -70.5l-160 -102q-13 -7 -13 -21q0 -8 6 -14.5t19 -6.5h139
v-118z" />
    <glyph glyph-name="uogonek" unicode="&#x173;" 
d="M362 -240h-178q-28 0 -48 8t-33 20.5t-19 29t-6 33.5q0 26 13 49.5t36 36.5l85 56q-76 10 -120 59.5t-44 131.5v314h116v-305q0 -25 7.5 -42t19.5 -28t27.5 -16t32.5 -5q16 0 31.5 5t27.5 16t19.5 28t7.5 42v305h116v-314q0 -56 -20.5 -97t-58.5 -65l-163 -102
q-13 -7 -13 -21q0 -8 6 -14.5t18 -6.5h140v-118z" />
    <glyph glyph-name="Wcircumflex" unicode="&#x174;" 
d="M491 725l-93 -725h-87l-60 306l-62 -306h-90l-89 725h132l33 -398l76 276l75 -276l34 398h131zM169 960h163l110 -170h-105l-88 108l-86 -108h-104z" />
    <glyph glyph-name="wcircumflex" unicode="&#x175;" 
d="M487 498l-99 -498h-91l-47 193l-48 -193h-90l-98 498h127l50 -273l63 273l62 -273l50 273h121zM169 734h163l110 -170h-105l-88 108l-86 -108h-104z" />
    <glyph glyph-name="Ycircumflex" unicode="&#x176;" 
d="M489 725l-174 -436v-289h-130v289l-173 436h153l88 -265l87 265h149zM169 960h163l110 -170h-105l-88 108l-86 -108h-104z" />
    <glyph glyph-name="ycircumflex" unicode="&#x177;" 
d="M475 498l-209 -697h-129l54 174l-166 523h131l100 -347l99 347h120zM169 734h163l110 -170h-105l-88 108l-86 -108h-104z" />
    <glyph glyph-name="Ydieresis" unicode="&#x178;" 
d="M489 725l-174 -436v-289h-130v289l-173 436h153l88 -265l87 265h149zM422 858q0 -32 -17 -55t-48 -23q-32 0 -49 23t-17 55t17 56t49 24q29 0 47 -24.5t18 -55.5zM209 858q0 -32 -16.5 -55t-47.5 -23q-32 0 -49 23t-17 55t17 56t49 24q29 0 46.5 -24.5t17.5 -55.5z" />
    <glyph glyph-name="Zacute" unicode="&#x179;" 
d="M471 725l-252 -603h242v-122h-439l262 609h-244v116h431zM285 783h-104l102 177h136z" />
    <glyph glyph-name="zacute" unicode="&#x17a;" 
d="M451 498l-215 -390h208v-108h-404l221 390h-201v108h391zM285 557h-104l102 177h136z" />
    <glyph glyph-name="Zdotaccent" unicode="&#x17b;" 
d="M471 725l-252 -603h242v-122h-439l262 609h-244v116h431zM315 858q0 -32 -16.5 -55t-47.5 -23q-32 0 -49 23t-17 55t17 56t49 24q29 0 46.5 -24.5t17.5 -55.5z" />
    <glyph glyph-name="zdotaccent" unicode="&#x17c;" 
d="M451 498l-215 -390h208v-108h-404l221 390h-201v108h391zM315 632q0 -32 -16.5 -55t-47.5 -23q-32 0 -49 23t-17 55t17 56t49 24q29 0 46.5 -24.5t17.5 -55.5z" />
    <glyph glyph-name="Zcaron" unicode="&#x17d;" 
d="M471 725l-252 -603h242v-122h-439l262 609h-244v116h431zM332 790h-163l-110 170h105l88 -108l86 108h104z" />
    <glyph glyph-name="zcaron" unicode="&#x17e;" 
d="M451 498l-215 -390h208v-108h-404l221 390h-201v108h391zM332 564h-163l-110 170h105l88 -108l86 108h104z" />
    <glyph glyph-name="florin" unicode="&#x192;" 
d="M296 320v-320q0 -63 -34.5 -95.5t-111.5 -32.5h-14t-16 1v87h10q37 0 55.5 21.5t18.5 59.5v279h-76v80h76v207q0 62 35 95t112 33h13.5t15.5 -1v-87h-10q-37 0 -55.5 -21.5t-18.5 -60.5v-165h76v-80h-76z" />
    <glyph glyph-name="Scommaaccent" unicode="&#x218;" 
d="M465 211q0 -101 -53 -161t-152 -60q-101 0 -151.5 49.5t-58.5 149.5h119q5 -39 27.5 -57.5t70.5 -18.5q34 0 55 21t21 56q0 30 -16 52t-59 43q-37 18 -75 39t-74 51q-33 29 -48.5 64.5t-15.5 91.5q0 95 54 149.5t148 54.5q100 0 146.5 -50t48.5 -141h-117q2 38 -21 59
t-60 21q-42 0 -62.5 -18.5t-20.5 -53.5q0 -28 12 -47t44 -38q22 -14 46 -24.5t47 -22t45.5 -25.5t41.5 -33q32 -31 45 -67t13 -84zM302 -43l-57 -197l-85 21l38 202z" />
    <glyph glyph-name="scommaaccent" unicode="&#x219;" 
d="M438 151q0 -37 -14 -66.5t-38.5 -50.5t-59 -32.5t-75.5 -11.5q-85 0 -133.5 34.5t-50.5 106.5h122q0 -29 17 -43t48 -14q37 0 50.5 16t13.5 33q0 23 -15 38.5t-55 32.5q-38 15 -70 28.5t-59 35.5q-23 18 -36.5 43.5t-13.5 57.5q0 39 14 67.5t38 47t57 27t71 8.5
q70 0 118.5 -33.5t56.5 -97.5h-118q-2 26 -16.5 39.5t-47.5 13.5q-32 0 -45.5 -14t-13.5 -32q0 -25 15.5 -39t57.5 -32q51 -21 81.5 -34t50.5 -27q23 -15 36.5 -40t13.5 -62zM302 -43l-57 -197l-85 21l38 202z" />
    <glyph glyph-name="uni021A" unicode="&#x21a;" 
d="M473 603h-158v-603h-130v603h-158v122h446v-122zM304 -43l-57 -197l-85 21l38 202z" />
    <glyph glyph-name="uni021B" unicode="&#x21b;" 
d="M432 0h-145q-69 0 -98.5 33t-29.5 101v257h-108v107h108v137h115v-137h115v-107h-115v-228q0 -22 8.5 -34t31.5 -12h118v-117zM292 -43l-57 -197l-85 21l38 202z" />
    <glyph glyph-name="circumflex" unicode="&#x2c6;" 
d="M169 734h163l110 -170h-105l-88 108l-86 -108h-104z" />
    <glyph glyph-name="caron" unicode="&#x2c7;" 
d="M332 564h-163l-110 170h105l88 -108l86 108h104z" />
    <glyph glyph-name="breve" unicode="&#x2d8;" 
d="M453 666q0 -57 -55 -88t-147 -31q-93 0 -148 31t-55 88v68h85v-62q0 -15 10 -25.5t26.5 -17.5t37.5 -10t44 -3q22 0 42.5 3t37 10t26.5 17.5t10 25.5v62h86v-68z" />
    <glyph glyph-name="dotaccent" unicode="&#x2d9;" 
d="M315 632q0 -32 -16.5 -55t-47.5 -23q-32 0 -49 23t-17 55t17 56t49 24q29 0 46.5 -24.5t17.5 -55.5z" />
    <glyph glyph-name="ring" unicode="&#x2da;" 
d="M250 734q29 0 54.5 -7.5t45 -22t30.5 -36.5t11 -51t-11 -51t-30.5 -36.5t-45 -21.5t-54.5 -7t-54.5 7t-45 21.5t-31 36.5t-11.5 51t11.5 51t31 36.5t45 22t54.5 7.5zM250 674q-31 0 -48 -13.5t-17 -43.5q0 -31 17 -43t48 -12q30 0 47.5 12t17.5 43q0 30 -17.5 43.5
t-47.5 13.5z" />
    <glyph glyph-name="ogonek" unicode="&#x2db;" 
d="M386 -240h-178q-28 0 -48 8t-33 20.5t-19 29t-6 33.5q0 26 13 49.5t37 36.5l119 63h115l-150 -80q-14 -7 -14 -21q0 -8 6 -14.5t19 -6.5h139v-118z" />
    <glyph glyph-name="tilde" unicode="&#x2dc;" 
d="M22 635q22 29 50.5 42.5t60.5 13.5q18 0 50 -9.5t67.5 -20.5t68 -20.5t50.5 -9.5q29 0 52.5 11t56.5 46v-81q-21 -29 -50 -43t-61 -14q-18 0 -50 9.5t-67.5 21t-68 21t-50.5 9.5q-14 0 -26.5 -2.5t-25.5 -9t-26.5 -18t-30.5 -28.5v82z" />
    <glyph glyph-name="hungarumlaut" unicode="&#x2dd;" 
d="M340 557h-104l102 177h137zM128 557h-104l102 177h136z" />
    <glyph glyph-name="Delta" unicode="&#x394;" 
d="M32 0l153 725h129l154 -725h-436zM182 113h127l-62 347z" />
    <glyph glyph-name="Omega" unicode="&#x3a9;" 
d="M211 0h-183v122h131v56q-57 23 -87 78t-30 137v110q0 111 54 171.5t155 60.5q100 0 154 -60.5t54 -171.5v-110q0 -82 -29.5 -137t-86.5 -78v-56h130v-122h-183v247h1q14 8 30 34t16 73v169q0 51 -25 76.5t-61 25.5q-37 0 -61.5 -25.5t-24.5 -76.5v-169q0 -47 15.5 -73
t29.5 -34h1v-247z" />
    <glyph glyph-name="mu" unicode="&#x3bc;" 
d="M454 146q0 -74 -31.5 -115t-94.5 -41q-47 0 -87.5 25.5t-66.5 87.5v-302h-116v697h116v-303q0 -48 20.5 -73t62.5 -25q41 0 61 25.5t20 73.5v302h116v-352z" />
    <glyph glyph-name="pi" unicode="&#x3c0;" 
d="M487 0h-63q-69 0 -99 33t-30 101v257h-132v-383h-115v490h362v-335q0 -22 9 -34t32 -12h36v-117z" />
    <glyph glyph-name="Wgrave" unicode="&#x1e80;" 
d="M491 725l-93 -725h-87l-60 306l-62 -306h-90l-89 725h132l33 -398l76 276l75 -276l34 398h131zM82 960h136l103 -177h-105z" />
    <glyph glyph-name="wgrave" unicode="&#x1e81;" 
d="M487 498l-99 -498h-91l-47 193l-48 -193h-90l-98 498h127l50 -273l63 273l62 -273l50 273h121zM82 734h136l103 -177h-105z" />
    <glyph glyph-name="Wacute" unicode="&#x1e82;" 
d="M491 725l-93 -725h-87l-60 306l-62 -306h-90l-89 725h132l33 -398l76 276l75 -276l34 398h131zM285 783h-104l102 177h136z" />
    <glyph glyph-name="wacute" unicode="&#x1e83;" 
d="M487 498l-99 -498h-91l-47 193l-48 -193h-90l-98 498h127l50 -273l63 273l62 -273l50 273h121zM285 557h-104l102 177h136z" />
    <glyph glyph-name="Wdieresis" unicode="&#x1e84;" 
d="M491 725l-93 -725h-87l-60 306l-62 -306h-90l-89 725h132l33 -398l76 276l75 -276l34 398h131zM422 858q0 -32 -17 -55t-48 -23q-32 0 -49 23t-17 55t17 56t49 24q29 0 47 -24.5t18 -55.5zM209 858q0 -32 -16.5 -55t-47.5 -23q-32 0 -49 23t-17 55t17 56t49 24
q29 0 46.5 -24.5t17.5 -55.5z" />
    <glyph glyph-name="wdieresis" unicode="&#x1e85;" 
d="M487 498l-99 -498h-91l-47 193l-48 -193h-90l-98 498h127l50 -273l63 273l62 -273l50 273h121zM422 632q0 -32 -17 -55t-48 -23q-32 0 -49 23t-17 55t17 56t49 24q29 0 47 -24.5t18 -55.5zM209 632q0 -32 -16.5 -55t-47.5 -23q-32 0 -49 23t-17 55t17 56t49 24
q29 0 46.5 -24.5t17.5 -55.5z" />
    <glyph glyph-name="Ygrave" unicode="&#x1ef2;" 
d="M489 725l-174 -436v-289h-130v289l-173 436h153l88 -265l87 265h149zM82 960h136l103 -177h-105z" />
    <glyph glyph-name="ygrave" unicode="&#x1ef3;" 
d="M475 498l-209 -697h-129l54 174l-166 523h131l100 -347l99 347h120zM82 734h136l103 -177h-105z" />
    <glyph glyph-name="endash" unicode="&#x2013;" 
d="M425 314h-350v107h350v-107z" />
    <glyph glyph-name="emdash" unicode="&#x2014;" 
d="M500 314h-500v107h500v-107z" />
    <glyph glyph-name="quoteleft" unicode="&#x2018;" 
d="M283 735l38 -269l-84 -20l-58 263z" />
    <glyph glyph-name="quoteright" unicode="&#x2019;" 
d="M313 709l-57 -263l-85 20l38 269z" />
    <glyph glyph-name="quotesinglbase" unicode="&#x201a;" 
d="M313 126l-57 -262l-85 20l38 269z" />
    <glyph glyph-name="quotedblleft" unicode="&#x201c;" 
d="M388 735l39 -269l-85 -20l-58 263zM178 735l38 -269l-85 -20l-57 263z" />
    <glyph glyph-name="quotedblright" unicode="&#x201d;" 
d="M216 709l-57 -263l-85 20l38 269zM427 709l-58 -263l-85 20l38 269z" />
    <glyph glyph-name="quotedblbase" unicode="&#x201e;" 
d="M216 126l-57 -262l-85 20l38 269zM427 126l-58 -262l-85 20l38 269z" />
    <glyph glyph-name="dagger" unicode="&#x2020;" 
d="M210 0v463h-183v80h183v182h80v-182h183v-80h-183v-463h-80z" />
    <glyph glyph-name="daggerdbl" unicode="&#x2021;" 
d="M210 0v182h-183v80h183v201h-183v80h183v182h80v-182h183v-80h-183v-201h183v-80h-183v-182h-80z" />
    <glyph glyph-name="bullet" unicode="&#x2022;" 
d="M68 370q0 37 14.5 70.5t39 58t57.5 39t71 14.5q37 0 70.5 -14.5t58 -39t39 -58t14.5 -70.5q0 -38 -14.5 -71t-39 -57.5t-58 -39t-70.5 -14.5q-38 0 -71 14.5t-57.5 39t-39 57.5t-14.5 71z" />
    <glyph glyph-name="ellipsis" unicode="&#x2026;" 
d="M160 68q0 -32 -16.5 -55t-47.5 -23q-32 0 -49 23t-17 55t17 56t49 24q29 0 46.5 -24.5t17.5 -55.5zM315 68q0 -32 -16.5 -55t-47.5 -23q-32 0 -49 23t-17 55t17 56t49 24q29 0 46.5 -24.5t17.5 -55.5zM473 68q0 -32 -16.5 -55t-47.5 -23q-32 0 -49 23t-17 55t17 56t49 24
q29 0 46.5 -24.5t17.5 -55.5z" />
    <glyph glyph-name="guilsinglleft" unicode="&#x2039;" 
d="M165 258v163l170 110v-105l-109 -88l109 -86v-104z" />
    <glyph glyph-name="guilsinglright" unicode="&#x203a;" 
d="M165 148v104l108 86l-108 88v105l170 -110v-163z" />
    <glyph glyph-name="fraction" unicode="&#x2044;" 
d="M500 725l-421 -725h-79l422 725h78z" />
    <glyph glyph-name="Euro" unicode="&#x20ac;" 
d="M276 103q14 0 26.5 7t22.5 18l96 -70q-17 -26 -52 -47t-93 -21q-49 0 -86.5 14.5t-63 41t-39 63.5t-13.5 82v83h-42l21 52h21v90h-42l21 52h21v51q0 108 52 162t150 54q67 0 113 -28l-43 -152q-10 31 -24.5 46.5t-45.5 15.5q-37 0 -58 -26.5t-21 -72.5v-50h122l-16 -52
h-106v-90h80l-15 -52h-65v-80q0 -14 5.5 -30t15.5 -29.5t25 -22.5t33 -9z" />
    <glyph glyph-name="uni20B9" unicode="&#x20b9;" 
d="M61 725h420l-40 -116h-94q19 -14 28.5 -37t12.5 -45h93l-40 -117h-57q-13 -61 -49 -100.5t-87 -53.5l158 -256h-161l-136 230v88h57q35 0 62 21t36 71h-244l41 117h199q-11 41 -38 60.5t-65 21.5h-137z" />
    <glyph glyph-name="uni2117" unicode="&#x2117;" 
d="M483 221q0 -110 -60 -170.5t-172 -60.5q-116 0 -175 63t-59 168v282q0 106 59 169t175 63q112 0 172 -60.5t60 -171.5v-282zM423 503q0 82 -44.5 126.5t-127.5 44.5q-87 0 -130 -46t-43 -125v-282q0 -78 43 -124t130 -46q83 0 127.5 44.5t44.5 125.5v282zM361 426
q0 -60 -26 -90.5t-82 -30.5h-38v-123h-63v362h102q53 0 80 -32.5t27 -85.5zM295 427q0 58 -49 58h-31v-119h31q49 0 49 61z" />
    <glyph glyph-name="trademark" unicode="&#x2122;" 
d="M223 673h-66v-249h-64v249h-68v52h198v-52zM473 424h-56v175l-47 -123l-46 123v-175h-57v301h64l39 -116l43 116h60v-301z" />
    <glyph glyph-name="partialdiff" unicode="&#x2202;" 
d="M36 156q0 47 16 97t46 91.5t73.5 68t99.5 26.5q21 0 46 -5l-98 291h135l87 -267q14 -45 21.5 -82t7.5 -73q0 -65 -22.5 -121.5t-59.5 -99.5t-85.5 -67.5t-100.5 -24.5q-74 0 -120 42.5t-46 123.5zM279 332q-26 0 -47.5 -12.5t-37.5 -32.5t-24.5 -45.5t-8.5 -50.5
q0 -35 18 -56.5t50 -21.5q22 0 43 12t37 31.5t26 45t10 53.5q0 33 -17.5 55t-48.5 22z" />
    <glyph glyph-name="product" unicode="&#x220f;" 
d="M442 709v-878h-80v878h-223v-878h-80v878h-52v80h486v-80h-51z" />
    <glyph glyph-name="summation" unicode="&#x2211;" 
d="M34 -159l211 442l-211 442h431v-86h-294l171 -356l-171 -356h294v-86h-431z" />
    <glyph glyph-name="minus" unicode="&#x2212;" 
d="M27 320v80h446v-80h-446z" />
    <glyph glyph-name="radical" unicode="&#x221a;" 
d="M413 725h88l-201 -725h-96l-89 245h-106v80h162l80 -234z" />
    <glyph glyph-name="infinity" unicode="&#x221e;" 
d="M147 528q36 0 61.5 -16.5t42.5 -48.5q19 35 42.5 50t60.5 15q60 0 100 -44t40 -131q0 -44 -11 -76.5t-30.5 -54t-45 -32.5t-53.5 -11q-72 0 -104 65q-20 -35 -43.5 -50t-59.5 -15q-61 0 -101.5 44t-40.5 130q0 44 11.5 77t31 54.5t45 32.5t54.5 11zM348 274
q27 0 49.5 19.5t22.5 59.5q0 39 -22.5 59t-49.5 20q-29 0 -50.5 -21t-21.5 -59q0 -39 20 -58.5t52 -19.5zM152 433q-28 0 -50 -20t-22 -60q0 -39 22 -58.5t50 -19.5q29 0 50 20.5t21 59.5q0 38 -19.5 58t-51.5 20z" />
    <glyph glyph-name="integral" unicode="&#x222b;" 
d="M296 -71q0 -63 -34.5 -95.5t-111.5 -32.5h-14t-16 1v87h10q37 0 55.5 21.5t18.5 60.5v718q0 63 35 96t112 33h13.5t15.5 -1v-87h-10q-37 0 -55.5 -21.5t-18.5 -60.5v-719z" />
    <glyph glyph-name="approxequal" unicode="&#x2248;" 
d="M22 245q22 29 50.5 43t60.5 14q18 0 50 -9.5t67.5 -21t68 -21t50.5 -9.5q28 0 52 11.5t57 46.5v-82q-21 -29 -50 -43t-61 -14q-18 0 -50 9.5t-67.5 21t-68 21t-50.5 9.5q-14 0 -26.5 -2.5t-25.5 -9t-26.5 -17.5t-30.5 -29v82zM22 506q22 29 50.5 43t60.5 14q18 0 50 -9.5
t67.5 -21t68 -21t50.5 -9.5q28 0 52 11.5t57 46.5v-82q-21 -29 -50 -43t-61 -14q-18 0 -50 9.5t-67.5 21t-68 21t-50.5 9.5q-14 0 -26.5 -2.5t-25.5 -9t-26.5 -17.5t-30.5 -29v82z" />
    <glyph glyph-name="notequal" unicode="&#x2260;" 
d="M330 432l-83 -143h226v-80h-273l-121 -209h-79l121 209h-94v80h141l83 143h-224v80h270l125 213h78l-124 -213h97v-80h-143z" />
    <glyph glyph-name="lessequal" unicode="&#x2264;" 
d="M472 93l-445 221v92l445 222v-89l-363 -179l363 -178v-89zM27 -79v80h446v-80h-446z" />
    <glyph glyph-name="greaterequal" unicode="&#x2265;" 
d="M27 182l363 178l-363 179v89l445 -222v-92l-445 -221v89zM27 -79v80h446v-80h-446z" />
    <glyph glyph-name="lozenge" unicode="&#x25ca;" 
d="M461 358l-165 -325h-92l-165 325l165 324h92zM127 358l123 -243l122 243l-122 243z" />
    <glyph glyph-name=".null" horiz-adv-x="0" 
 />
    <glyph glyph-name="nonmarkingreturn" 
 />
    <glyph glyph-name="zeroinferior" unicode="&#x2080;" 
d="M360 91q0 -47 -24 -77t-86 -30q-61 0 -85 30t-24 76v201q0 47 24 76t85 29q62 0 86 -30t24 -75v-200zM217 92q0 -37 33 -37q17 0 25 9t8 30v193q0 39 -33 39t-33 -37v-197z" />
    <glyph glyph-name="oneinferior" unicode="&#x2081;" 
d="M318 -10h-73v287l-63 -36v83l136 76v-410z" />
    <glyph glyph-name="twoinferior" unicode="&#x2082;" 
d="M362 279q0 -23 -7 -43.5t-18 -40.5l-72 -120h94v-85h-222l131 236q18 33 18 50q0 24 -10 33.5t-26 9.5q-35 0 -36 -56h-74q7 133 110 133q51 0 81.5 -32.5t30.5 -84.5z" />
    <glyph glyph-name="threeinferior" unicode="&#x2083;" 
d="M370 110q0 -57 -32.5 -91.5t-86.5 -34.5q-57 0 -89 36.5t-32 96.5h74q0 -59 44 -59q21 0 33.5 15.5t12.5 39.5q0 26 -15 39t-33 15v60q17 1 31 14t14 36q0 25 -11 37.5t-29 12.5q-35 0 -43 -43h-66q4 50 31.5 81t81.5 31q22 0 41.5 -8.5t33.5 -23.5t22 -36t8 -46
q0 -32 -8 -51t-27 -31q21 -13 33 -34t12 -56z" />
    <glyph glyph-name="fourinferior" unicode="&#x2084;" 
d="M373 75h-40v-85h-74v85h-133v74l113 241h94v-242h40v-73zM263 148v162l-77 -162h77z" />
    <glyph glyph-name="fiveinferior" unicode="&#x2085;" 
d="M367 123q0 -29 -9 -54t-25.5 -44t-40 -30t-51.5 -11q-79 0 -109 90l66 35q12 -42 47 -42q20 0 32.5 14t12.5 39q0 28 -12 42t-32 14q-13 0 -22.5 -7.5t-14.5 -17.5h-64v239h205v-79h-139v-74q13 6 25.5 9t22.5 3q52 0 80 -35t28 -91z" />
    <glyph glyph-name="sixinferior" unicode="&#x2086;" 
d="M368 115q0 -63 -34.5 -97t-84.5 -34q-25 0 -46.5 10t-37 28t-24.5 42t-9 52q0 32 10.5 62.5t30.5 66.5l81 145h85l-87 -153q5 1 15 1q47 0 74 -33t27 -90zM291 116q0 23 -11.5 37.5t-30.5 14.5q-18 0 -29.5 -15t-11.5 -38q0 -22 11.5 -37t29.5 -15q19 0 30.5 15t11.5 38z
" />
    <glyph glyph-name="seveninferior" unicode="&#x2087;" 
d="M374 390l-136 -400h-95l122 321h-140v79h249z" />
    <glyph glyph-name="eightinferior" unicode="&#x2088;" 
d="M370 110q0 -59 -28.5 -92.5t-91.5 -33.5q-62 0 -91.5 34t-29.5 92q0 33 16.5 56.5t34.5 34.5q-19 14 -27 33.5t-8 47.5q0 49 26 81.5t79 32.5q27 0 47 -9t33.5 -25t20 -36.5t6.5 -43.5q0 -55 -36 -82q22 -13 35.5 -35.5t13.5 -54.5zM289 278q0 19 -9.5 34.5t-29.5 15.5
t-29.5 -15.5t-9.5 -34.5t10 -34.5t30 -15.5t29 14.5t9 35.5zM296 112q0 24 -11.5 39.5t-34.5 15.5t-34.5 -15.5t-11.5 -39.5q0 -23 12 -38.5t35 -15.5q22 0 33.5 16.5t11.5 37.5z" />
    <glyph glyph-name="nineinferior" unicode="&#x2089;" 
d="M132 265q0 31 9.5 55.5t25.5 41.5t38 25.5t46 8.5q25 0 46 -10t37 -27.5t25 -42t9 -52.5q0 -32 -9.5 -62.5t-29.5 -66.5l-83 -145h-84l84 154h-12q-48 0 -75 32t-27 89zM208 264q0 -23 12 -37t31 -14q18 0 29 15t11 37q0 23 -11 38t-29 15q-19 0 -31 -15t-12 -39z" />
    <glyph glyph-name="ordfeminine" unicode="&#xaa;" 
d="M291 556q-15 10 -41 10q-38 0 -38 -31q0 -14 9.5 -20t26.5 -6q14 0 26 10.5t17 23.5v13zM365 451h-68v28q-10 -14 -26.5 -24t-41.5 -10q-51 0 -72.5 24.5t-21.5 65.5q0 91 92 91q45 0 64 -11v18q0 38 -39 38q-28 0 -39 -32l-68 22q7 22 18.5 36.5t26 23t30.5 12t31 3.5
q63 0 88.5 -27t25.5 -74v-184z" />
    <glyph glyph-name="ordmasculine" unicode="&#xba;" 
d="M370 588q0 -30 -8.5 -56.5t-24.5 -46t-38 -31t-49 -11.5t-49.5 11t-38 30.5t-24.5 46t-9 57.5t8.5 58t24 46.5t38 30.5t50.5 11t50 -11.5t37.5 -31t24 -46t8.5 -57.5zM293 588q0 32 -11.5 52t-31.5 20t-32 -20t-12 -52q0 -30 12 -50.5t32 -20.5t31.5 20t11.5 51z" />
    <glyph glyph-name="onesuperior" unicode="&#xb9;" 
d="M318 335h-73v287l-63 -36v83l136 76v-410z" />
    <glyph glyph-name="threesuperior" unicode="&#xb3;" 
d="M370 455q0 -57 -32.5 -91.5t-86.5 -34.5q-57 0 -89 36.5t-32 96.5h74q0 -59 44 -59q21 0 33.5 15.5t12.5 39.5q0 26 -15 39t-33 15v60q17 1 31 14t14 36q0 25 -11 37.5t-29 12.5q-35 0 -43 -43h-66q4 50 31.5 81t81.5 31q22 0 41.5 -8.5t33.5 -23.5t22 -36t8 -46
q0 -32 -8 -51t-27 -31q21 -13 33 -34t12 -56z" />
    <glyph glyph-name="twosuperior" unicode="&#xb2;" 
d="M362 624q0 -23 -7 -43.5t-18 -40.5l-72 -120h94v-85h-222l131 236q18 33 18 50q0 24 -10 33.5t-26 9.5q-35 0 -36 -56h-74q7 133 110 133q51 0 81.5 -32.5t30.5 -84.5z" />
    <glyph glyph-name="zerosuperior" unicode="&#x2070;" 
d="M360 436q0 -47 -24 -77t-86 -30q-61 0 -85 30t-24 76v201q0 47 24 76t85 29q62 0 86 -30t24 -75v-200zM217 437q0 -37 33 -37q17 0 25 9t8 30v193q0 39 -33 39t-33 -37v-197z" />
    <glyph glyph-name="foursuperior" unicode="&#x2074;" 
d="M373 420h-40v-85h-74v85h-133v74l113 241h94v-242h40v-73zM263 493v162l-77 -162h77z" />
    <glyph glyph-name="fivesuperior" unicode="&#x2075;" 
d="M367 468q0 -29 -9 -54t-25.5 -44t-40 -30t-51.5 -11q-79 0 -109 90l66 35q12 -42 47 -42q20 0 32.5 14t12.5 39q0 28 -12 42t-32 14q-13 0 -22.5 -7.5t-14.5 -17.5h-64v239h205v-79h-139v-74q13 6 25.5 9t22.5 3q52 0 80 -35t28 -91z" />
    <glyph glyph-name="sixsuperior" unicode="&#x2076;" 
d="M368 460q0 -63 -34.5 -97t-84.5 -34q-25 0 -46.5 10t-37 28t-24.5 42t-9 52q0 32 10.5 62.5t30.5 66.5l81 145h85l-87 -153q5 1 15 1q47 0 74 -33t27 -90zM291 461q0 23 -11.5 37.5t-30.5 14.5q-18 0 -29.5 -15t-11.5 -38q0 -22 11.5 -37t29.5 -15q19 0 30.5 15t11.5 38z
" />
    <glyph glyph-name="sevensuperior" unicode="&#x2077;" 
d="M374 735l-136 -400h-95l122 321h-140v79h249z" />
    <glyph glyph-name="eightsuperior" unicode="&#x2078;" 
d="M370 455q0 -59 -28.5 -92.5t-91.5 -33.5q-62 0 -91.5 34t-29.5 92q0 33 16.5 56.5t34.5 34.5q-19 14 -27 33.5t-8 47.5q0 49 26 81.5t79 32.5q27 0 47 -9t33.5 -25t20 -36.5t6.5 -43.5q0 -55 -36 -82q22 -13 35.5 -35.5t13.5 -54.5zM289 623q0 19 -9.5 34.5t-29.5 15.5
t-29.5 -15.5t-9.5 -34.5t10 -34.5t30 -15.5t29 14.5t9 35.5zM296 457q0 24 -11.5 39.5t-34.5 15.5t-34.5 -15.5t-11.5 -39.5q0 -23 12 -38.5t35 -15.5q22 0 33.5 16.5t11.5 37.5z" />
    <glyph glyph-name="ninesuperior" unicode="&#x2079;" 
d="M132 610q0 31 9.5 55.5t25.5 41.5t38 25.5t46 8.5q25 0 46 -10t37 -27.5t25 -42t9 -52.5q0 -32 -9.5 -62.5t-29.5 -66.5l-83 -145h-84l84 154h-12q-48 0 -75 32t-27 89zM208 609q0 -23 12 -37t31 -14q18 0 29 15t11 37q0 23 -11 38t-29 15q-19 0 -31 -15t-12 -39z" />
    <glyph glyph-name="onehalf" unicode="&#xbd;" 
d="M174 335h-73v287l-63 -36v83l136 76v-410zM497 725l-421 -725h-79l422 725h78zM506 279q0 -23 -7 -43.5t-18 -40.5l-72 -120h94v-85h-222l131 236q18 33 18 50q0 24 -10 33.5t-26 9.5q-35 0 -36 -56h-74q7 133 110 133q51 0 81.5 -32.5t30.5 -84.5z" />
    <glyph glyph-name="onequarter" unicode="&#xbc;" 
d="M169 335h-73v287l-63 -36v83l136 76v-410zM499 725l-421 -725h-79l422 725h78zM503 75h-40v-85h-74v85h-133v74l113 241h94v-242h40v-73zM393 148v162l-77 -162h77z" />
    <glyph glyph-name="threequarters" unicode="&#xbe;" 
d="M222 455q0 -57 -32.5 -91.5t-86.5 -34.5q-57 0 -89 36.5t-32 96.5h74q0 -59 44 -59q21 0 33.5 15.5t12.5 39.5q0 26 -15 39t-33 15v60q17 1 31 14t14 36q0 25 -11 37.5t-29 12.5q-35 0 -43 -43h-66q4 50 31.5 81t81.5 31q22 0 41.5 -8.5t33.5 -23.5t22 -36t8 -46
q0 -32 -8 -51t-27 -31q21 -13 33 -34t12 -56zM510 725l-421 -725h-79l422 725h78zM519 75h-40v-85h-74v85h-133v74l113 241h94v-242h40v-73zM409 148v162l-77 -162h77z" />
    <glyph glyph-name="oneeighth" unicode="&#x215b;" 
d="M153 335h-73v287l-63 -36v83l136 76v-410zM493 725l-421 -725h-79l422 725h78zM509 110q0 -59 -28.5 -92.5t-91.5 -33.5q-62 0 -91.5 34t-29.5 92q0 33 16.5 56.5t34.5 34.5q-19 14 -27 33.5t-8 47.5q0 49 26 81.5t79 32.5q27 0 47 -9t33.5 -25t20 -36.5t6.5 -43.5
q0 -55 -36 -82q22 -13 35.5 -35.5t13.5 -54.5zM428 278q0 19 -9.5 34.5t-29.5 15.5t-29.5 -15.5t-9.5 -34.5t10 -34.5t30 -15.5t29 14.5t9 35.5zM435 112q0 24 -11.5 39.5t-34.5 15.5t-34.5 -15.5t-11.5 -39.5q0 -23 12 -38.5t35 -15.5q22 0 33.5 16.5t11.5 37.5z" />
    <glyph glyph-name="threeeighths" unicode="&#x215c;" 
d="M220 455q0 -57 -32.5 -91.5t-86.5 -34.5q-57 0 -89 36.5t-32 96.5h74q0 -59 44 -59q21 0 33.5 15.5t12.5 39.5q0 26 -15 39t-33 15v60q17 1 31 14t14 36q0 25 -11 37.5t-29 12.5q-35 0 -43 -43h-66q4 50 31.5 81t81.5 31q22 0 41.5 -8.5t33.5 -23.5t22 -36t8 -46
q0 -32 -8 -51t-27 -31q21 -13 33 -34t12 -56zM501 725l-421 -725h-79l422 725h78zM521 110q0 -59 -28.5 -92.5t-91.5 -33.5q-62 0 -91.5 34t-29.5 92q0 33 16.5 56.5t34.5 34.5q-19 14 -27 33.5t-8 47.5q0 49 26 81.5t79 32.5q27 0 47 -9t33.5 -25t20 -36.5t6.5 -43.5
q0 -55 -36 -82q22 -13 35.5 -35.5t13.5 -54.5zM440 278q0 19 -9.5 34.5t-29.5 15.5t-29.5 -15.5t-9.5 -34.5t10 -34.5t30 -15.5t29 14.5t9 35.5zM447 112q0 24 -11.5 39.5t-34.5 15.5t-34.5 -15.5t-11.5 -39.5q0 -23 12 -38.5t35 -15.5q22 0 33.5 16.5t11.5 37.5z" />
    <glyph glyph-name="fiveeighths" unicode="&#x215d;" 
d="M234 468q0 -29 -9 -54t-25.5 -44t-40 -30t-51.5 -11q-79 0 -109 90l66 35q12 -42 47 -42q20 0 32.5 14t12.5 39q0 28 -12 42t-32 14q-13 0 -22.5 -7.5t-14.5 -17.5h-64v239h205v-79h-139v-74q13 6 25.5 9t22.5 3q52 0 80 -35t28 -91zM501 725l-421 -725h-79l422 725h78z
M503 110q0 -59 -28.5 -92.5t-91.5 -33.5q-62 0 -91.5 34t-29.5 92q0 33 16.5 56.5t34.5 34.5q-19 14 -27 33.5t-8 47.5q0 49 26 81.5t79 32.5q27 0 47 -9t33.5 -25t20 -36.5t6.5 -43.5q0 -55 -36 -82q22 -13 35.5 -35.5t13.5 -54.5zM422 278q0 19 -9.5 34.5t-29.5 15.5
t-29.5 -15.5t-9.5 -34.5t10 -34.5t30 -15.5t29 14.5t9 35.5zM429 112q0 24 -11.5 39.5t-34.5 15.5t-34.5 -15.5t-11.5 -39.5q0 -23 12 -38.5t35 -15.5q22 0 33.5 16.5t11.5 37.5z" />
    <glyph glyph-name="seveneighths" unicode="&#x215e;" 
d="M274 735l-136 -400h-95l122 321h-140v79h249zM485 725l-421 -725h-79l422 725h78zM518 110q0 -59 -28.5 -92.5t-91.5 -33.5q-62 0 -91.5 34t-29.5 92q0 33 16.5 56.5t34.5 34.5q-19 14 -27 33.5t-8 47.5q0 49 26 81.5t79 32.5q27 0 47 -9t33.5 -25t20 -36.5t6.5 -43.5
q0 -55 -36 -82q22 -13 35.5 -35.5t13.5 -54.5zM437 278q0 19 -9.5 34.5t-29.5 15.5t-29.5 -15.5t-9.5 -34.5t10 -34.5t30 -15.5t29 14.5t9 35.5zM444 112q0 24 -11.5 39.5t-34.5 15.5t-34.5 -15.5t-11.5 -39.5q0 -23 12 -38.5t35 -15.5q22 0 33.5 16.5t11.5 37.5z" />
    <glyph glyph-name="onethird" unicode="&#x2153;" 
d="M146 335h-73v287l-63 -36v83l136 76v-410zM490 725l-421 -725h-79l422 725h78zM513 110q0 -57 -32.5 -91.5t-86.5 -34.5q-57 0 -89 36.5t-32 96.5h74q0 -59 44 -59q21 0 33.5 15.5t12.5 39.5q0 26 -15 39t-33 15v60q17 1 31 14t14 36q0 25 -11 37.5t-29 12.5
q-35 0 -43 -43h-66q4 50 31.5 81t81.5 31q22 0 41.5 -8.5t33.5 -23.5t22 -36t8 -46q0 -32 -8 -51t-27 -31q21 -13 33 -34t12 -56z" />
    <glyph glyph-name="twothirds" unicode="&#x2154;" 
d="M200 624q0 -23 -7 -43.5t-18 -40.5l-72 -120h94v-85h-222l131 236q18 33 18 50q0 24 -10 33.5t-26 9.5q-35 0 -36 -56h-74q7 133 110 133q51 0 81.5 -32.5t30.5 -84.5zM517 725l-421 -725h-79l422 725h78zM526 110q0 -57 -32.5 -91.5t-86.5 -34.5q-57 0 -89 36.5
t-32 96.5h74q0 -59 44 -59q21 0 33.5 15.5t12.5 39.5q0 26 -15 39t-33 15v60q17 1 31 14t14 36q0 25 -11 37.5t-29 12.5q-35 0 -43 -43h-66q4 50 31.5 81t81.5 31q22 0 41.5 -8.5t33.5 -23.5t22 -36t8 -46q0 -32 -8 -51t-27 -31q21 -13 33 -34t12 -56z" />
    <glyph glyph-name="percent" unicode="%" 
d="M212 436q0 -47 -24 -77t-86 -30q-61 0 -85 30t-24 76v201q0 47 24 76t85 29q62 0 86 -30t24 -75v-200zM69 437q0 -37 33 -37q17 0 25 9t8 30v193q0 39 -33 39t-33 -37v-197zM500 725l-421 -725h-79l422 725h78zM510 91q0 -47 -24 -77t-86 -30q-61 0 -85 30t-24 76v201
q0 47 24 76t85 29q62 0 86 -30t24 -75v-200zM367 92q0 -37 33 -37q17 0 25 9t8 30v193q0 39 -33 39t-33 -37v-197z" />
    <glyph glyph-name="perthousand" unicode="&#x2030;" 
d="M146 436q0 -47 -16 -77t-57 -30t-56.5 30t-15.5 76v201q0 47 15.5 76t56.5 29t57 -30t16 -75v-200zM52 437q0 -38 21 -38q11 0 16.5 9t5.5 31v193q0 38 -22 38q-21 0 -21 -36v-197zM337 725l-278 -725h-52l278 725h52zM341 91q0 -47 -15.5 -77t-56.5 -30t-57 30t-16 76
v201q0 47 16 76t57 29t56.5 -30t15.5 -75v-200zM247 92q0 -37 22 -37q11 0 16 9t5 30v193q0 39 -21 39q-22 0 -22 -37v-197zM501 91q0 -47 -15.5 -77t-56.5 -30t-56.5 30t-15.5 76v201q0 47 15.5 76t56.5 29t56.5 -30t15.5 -75v-200zM407 92q0 -37 22 -37q11 0 16.5 9
t5.5 30v193q0 39 -22 39t-22 -37v-197z" />
  </font>
</defs>
</svg>
